<svg id="Layer_1" data-name="Layer 1" xmlns="http://www.w3.org/2000/svg" viewBox="0 0 1604 1079.53"><defs><style>.cls-1{fill: "current";stroke: "current";}</style></defs><title>Background</title><path class="cls-1" d="M1561.79,1080a11.69,11.69,0,0,1,.41-2,24,24,0,0,1,2-4.85,23.46,23.46,0,0,1,4.52-6c1-1,2.13-2.06,3.35-3.07s2.34-1.88,4-3.07a68.52,68.52,0,0,1,8.62-4.62,52.08,52.08,0,0,1,9-3.1,62.9,62.9,0,0,1,7.32-1.38,30,30,0,0,1,3-.26,13.73,13.73,0,0,1-.9,2,28.75,28.75,0,0,1-3,4.52,56.68,56.68,0,0,1-5.27,5.48,57.79,57.79,0,0,1-7.33,5.54c-.93.64-2.41,1.66-3.68,2.38s-2.69,1.53-4.09,2.21c-2.79,1.31-5.61,2.61-8.22,3.61a59.9,59.9,0,0,1-6.8,2.09C1563,1079.84,1561.79,1080,1561.79,1080Z" transform="translate(0 -0.47)"/><path class="cls-1" d="M1502,1080a45.79,45.79,0,0,1,1.92-4.16c.68-1.31,1.46-2.9,2.53-4.66a36.94,36.94,0,0,1,3.93-5.85c1.6-2.11,3.35-4.41,5.37-6.8s4.51-4.67,7-7.11a77.78,77.78,0,0,1,8.32-7.2c3-2.36,6.2-4.68,9.37-7,3.78-2.33,6.82-4.23,10.33-6.26a105.1,105.1,0,0,1,10.68-5.58c3.66-1.72,7.17-3.42,10.66-4.79s6.91-2.51,10-3.58a78.32,78.32,0,0,1,8.73-2.66c2.64-.73,5-1.27,7-1.72,3.88-.9,6.18-1.29,6.18-1.29s-1.57,1.24-4.44,3.19c-1.44,1-3.17,2.17-5.24,3.43s-4.28,2.76-6.73,4.35-5.08,3.32-7.95,5-5.55,3.71-8.57,5.58l-4.58,2.85c-1.55,1-3.09,2.12-4.69,3.15-3.06,2.09-6.69,4.39-9.57,6.23-3,2.16-6.09,4.33-9.21,6.38s-6,4.17-8.89,6.22l-8.39,5.84c-2.53,1.91-5.08,3.67-7.45,5.3s-4.61,3.13-6.5,4.57-3.67,2.58-5.11,3.55C1503.78,1079,1502,1080,1502,1080Z" transform="translate(0 -0.47)"/><path class="cls-1" d="M1448.27,1080s.84-2.35,2.64-6.38a73.66,73.66,0,0,1,3.63-7.19,87.35,87.35,0,0,1,5.57-9.16,111.59,111.59,0,0,1,7.74-10.52c3-3.63,6.29-7.47,10.11-11.25a155.78,155.78,0,0,1,12.54-11.3c4.35-3.83,9.57-7.24,14.47-10.85,5.59-3.44,10.07-6.59,16-9.69,5.54-3.19,11.29-5.92,16.88-8.5s11.32-4.77,16.72-6.81,10.64-3.81,15.62-5.21,9.46-2.76,13.59-3.73,7.69-1.86,10.71-2.45c6-1.21,9.49-1.77,9.49-1.77s-2.89,1.46-8,3.79l-9.21,4.25c-3.58,1.6-7.49,3.51-11.78,5.52s-8.77,4.36-13.63,6.66-9.64,5.05-14.65,7.77l-7.53,4.22c-2.53,1.43-4.88,3-7.4,4.42-4.87,2.77-10.2,6.48-15,9.48-4.67,3.36-9.64,6.54-14,10-2.2,1.72-4.55,3.33-6.67,5s-4.21,3.41-6.27,5.08c-4,3.37-7.95,6.67-11.54,9.86-3.41,3.27-7,6.24-9.9,9.17s-5.83,5.52-8.19,7.92l-6.31,6.2C1450.43,1078.06,1448.27,1080,1448.27,1080Z" transform="translate(0 -0.47)"/><path class="cls-1" d="M1398.21,1080s1-3.14,3.22-8.54c1-2.71,2.48-6,4.33-9.7.9-1.86,1.87-3.85,2.9-5.94s2.41-4.21,3.69-6.47a150.76,150.76,0,0,1,9.33-14.34c1.67-2.55,3.89-5,5.9-7.61a87.39,87.39,0,0,1,6.72-7.76l7.56-7.81c2.6-2.63,5.61-5.1,8.56-7.64l4.45-3.81c1.54-1.25,3.23-2.42,4.84-3.63l10-7.4,10.41-6.45c1.76-1.07,3.41-2.16,5.27-3.18l5.76-3c3.84-2,7.59-4.08,11.5-5.83l11.61-5.08c3.75-1.73,7.7-3.13,11.54-4.53s7.51-2.85,11.3-4c7.48-2.39,14.54-4.63,21.31-6.28l9.62-2.49,8.81-1.94c5.52-1.23,10.37-2.21,14.41-2.92,8.06-1.45,12.71-2.16,12.71-2.16s-4.14,1.63-11.47,4.25l-13.12,4.78c-5.09,1.8-10.7,4-16.81,6.31s-12.51,5.07-19.4,7.78c-3.47,1.33-6.73,3-10.22,4.56s-7.14,3-10.51,4.84l-10.55,5.28c-3.49,1.83-6.72,3.82-10.2,5.69l-5.16,2.87c-1.7,1-3.4,2.15-5.12,3.22l-10.33,6.52-9.23,6.56c-1.55,1.12-3.18,2.2-4.67,3.36l-4.31,3.54c-2.79,2.38-5.84,4.6-8.55,7s-5.27,4.76-7.84,7.1-4.78,4.79-7.21,7.07-4.79,4.54-6.77,6.89c-4,4.63-8.24,8.88-11.56,13.05s-6.7,7.88-9.36,11.3-5.22,6.34-7.1,8.84C1400.61,1077.22,1398.21,1080,1398.21,1080Z" transform="translate(0 -0.47)"/><path class="cls-1" d="M1349.75,1080s1.36-3.89,4-10.65c1.3-3.38,3-7.47,5.08-12.13l3.31-7.44,4.16-8.16a196.72,196.72,0,0,1,10.48-18.16c1.84-3.24,4.46-6.37,6.75-9.69a97.87,97.87,0,0,1,7.78-9.9l8.91-10c3.09-3.34,6.79-6.47,10.33-9.71l5.39-4.85c1.89-1.58,4-3.05,6-4.58l12.17-9.12,13.45-8.13c2.22-1.31,4.3-2.66,6.62-3.93l7.31-3.69c4.87-2.42,9.62-5,14.6-7.06l14.81-6c4.79-2.05,9.85-3.61,14.72-5.24s9.57-3.3,14.38-4.54c9.51-2.68,18.48-5.22,27-7l12.12-2.8,11.05-2.22c6.93-1.42,13-2.55,18-3.42,10-1.77,15.83-2.68,15.83-2.68s-5.31,1.8-14.69,4.78L1572.42,919c-6.56,2-13.84,4.39-21.77,7s-16.28,5.61-25.21,8.64c-4.53,1.46-8.77,3.41-13.31,5.15s-9.28,3.41-13.65,5.56l-13.65,6.17c-4.51,2.15-8.65,4.58-13.13,6.8l-6.63,3.42c-2.19,1.24-4.32,2.66-6.48,4l-12.7,7.91-11.66,8.47c-1.92,1.42-3.94,2.78-5.77,4.25l-5.18,4.52c-3.35,3.06-7.06,5.9-10.25,8.95s-6.16,6.17-9.17,9.2c-3.19,2.94-5.5,6.2-8.27,9.18-2.59,3.06-5.49,5.91-7.65,9-4.5,6-9.18,11.58-12.83,17-3.82,5.34-7.38,10.23-10.34,14.65l-7.93,11.37C1352.42,1076.43,1349.75,1080,1349.75,1080Z" transform="translate(0 -0.47)"/><path class="cls-1" d="M1301.05,1080l5.39-12.65c3.5-8,8.18-19.52,14.75-33.21,3.32-6.84,6.91-14.27,11.54-22a198.17,198.17,0,0,1,16-23.9,193.08,193.08,0,0,1,21.87-24.11c8.29-7.89,18-15.25,28.06-22.37,5.66-3.47,10.11-6.61,16.08-9.82,2.84-1.58,5.64-3.21,8.49-4.72l8.66-4.36a323.06,323.06,0,0,1,35.83-14.71c6-2.19,12-4,17.93-5.88,6-1.67,11.8-3.44,17.57-4.89,11.44-3.11,22.48-5.53,32.65-7.77,20.34-4.42,37.43-7.56,49.36-9.91l18.79-3.62-4.59,1.51c-3,1-7.36,2.5-13,4.2-11.29,3.54-27.66,8.25-47.14,13.87-9.7,2.87-20.2,5.95-31.07,9.43s-22.12,7.39-33.4,11.74-22.37,9.43-33.33,14.79l-8.09,4.17c-2.63,1.44-5.12,2.94-7.7,4.41-5.07,2.73-10.39,6.54-15.2,9.5-9.58,6.63-18.9,13.47-26.88,20.85s-15.65,14.77-22,22.44-12.33,15.13-17.46,22.47-9.74,14.39-14,20.91c-8.35,13.11-15.33,24.12-20.59,31.73-2.52,3.83-4.8,6.75-6.23,8.78Z" transform="translate(0 -0.47)"/><path class="cls-1" d="M1250.27,1080s.73-1.31,2.08-3.77,3.39-6.07,5.72-10.68,5.11-10.23,8.3-16.67,6.47-13.8,10.2-21.78,7.78-16.68,12.77-25.77a240.56,240.56,0,0,1,17.25-28.28,202.21,202.21,0,0,1,24.24-28.68l7.35-6.93c2.55-2.26,5.3-4.44,8-6.68l4-3.33,4.32-3.17,8.9-6.46,9.12-5.68,4.58-2.85,5-2.75c3.36-1.81,6.67-3.7,10.06-5.43l10.29-4.94a360.24,360.24,0,0,1,42.61-16.33c14.26-4.66,28.5-8.36,42-11.61s26.4-6.05,38.28-8.59l32.36-6.86c9.56-2.15,18-3.94,24.78-5.59s12.19-2.94,15.86-3.84l5.61-1.4-5.23,2c-3.43,1.24-8.36,3.25-14.94,5.35s-14.52,4.77-23.8,7.55-19.82,5.78-31.37,8.91-24,6.59-37,10.33-26.49,7.94-40,12.67a404.11,404.11,0,0,0-39.94,16.36l-9.65,4.75c-3.12,1.63-6.07,3.38-9.13,5.05l-4.57,2.55-4.51,2.85-9,5.76c-10.78,7.52-21.83,15.8-30.74,24.56s-17.48,17.69-24.33,26.89c-7,9.11-13.3,18.17-18.84,26.94s-10.59,17.15-15.34,24.89-9.16,14.86-13.23,21.11-7.91,11.64-11.22,16c-3.13,4.44-6.1,7.73-7.93,10Z" transform="translate(0 -0.47)"/><path class="cls-1" d="M1195.29,1080l3.11-4.13c2-2.72,5.2-6.61,8.49-11.76,1.68-2.57,3.68-5.34,5.59-8.47s3.91-6.51,6.09-10.12c4.09-7.31,8.43-15.6,13-24.71s9.16-19.09,14.56-29.59a321.55,321.55,0,0,1,18.52-32.83,215.2,215.2,0,0,1,26.4-33.55l8.19-8.1c2.85-2.66,6-5.18,9-7.79l4.57-3.89,5-3.66,10.22-7.47,10.55-6.53,5.31-3.25,5.85-3.12c3.92-2,7.76-4.21,11.74-6.14l12-5.51a405.8,405.8,0,0,1,49.85-17.78c16.65-5,33.17-8.91,48.78-12.47s30.38-6.77,44-9.79,25.85-6,36.7-8.76l15-4.09c4.65-1.29,8.79-2.64,12.62-3.77,7.67-2.22,13.39-4.38,17.43-5.7l6.15-2.1s-2,.92-5.68,2.62-9,4.41-16.35,7.16c-3.64,1.41-7.61,3.09-12.06,4.72l-14.59,5.1-16.9,5.37-19,5.5c-13.29,3.71-27.79,7.57-43,11.61s-31.05,8.56-47,13.61a446.58,446.58,0,0,0-47.06,17.82l-11.31,5.3c-3.68,1.82-7.09,3.81-10.68,5.71l-5.32,2.87-5.23,3.27-10.47,6.59-9.27,6.69-4.73,3.42-4.36,3.64c-2.85,2.43-5.87,4.79-8.6,7.28l-7.86,7.61c-10,10.34-19.19,20.85-26.5,31.68-7.5,10.73-14.19,21.38-20.22,31.63s-11.76,20-17.26,28.94c-2.82,4.46-5.49,8.76-8.17,12.8s-5.47,7.8-8,11.38l-7.58,9.81c-2.43,3-4.92,5.69-7,8.14-4.1,5-8.18,8.44-10.62,11Z" transform="translate(0 -0.47)"/><path class="cls-1" d="M1133.37,1080l4.58-4.31,5.51-5.18,3.49-3.28c1.11-1.22,2.29-2.52,3.54-3.88l8.2-9,8.64-11c3-4,5.72-8.35,8.84-12.86s5.77-9.48,8.88-14.53c5.72-10.28,11.46-21.51,17.48-33.51s12.3-24.73,20.1-37.68a236.32,236.32,0,0,1,28.42-38.91c11.39-12.78,25.81-24.55,41.26-35.57l12.39-7.61c2-1.23,4-2.48,6.12-3.69l6.77-3.51c4.55-2.29,9-4.77,13.6-6.86l14-6.11A474.65,474.65,0,0,1,1403,823.32c19.25-5.25,38.2-9.49,56-13.53s34.5-7.92,49.77-11.77c7.51-2.08,14.83-3.94,21.6-6s13.24-3.9,19.1-5.95l16.4-5.81,13.45-5.54,5.77-2.38,4.85-2.33,7.68-3.7,6.41-3.09-5.84,3.56-7,4.29-4.49,2.71c-1.71.87-3.52,1.8-5.45,2.77l-12.78,6.47-15.9,6.82c-5.72,2.4-12.11,4.57-18.7,7.08s-13.92,4.57-21.36,7c-7.57,2.24-15.46,4.6-23.67,6.9l-25.56,6.81c-17.57,4.58-36,9.4-54.58,14.77a512.22,512.22,0,0,0-55,19.22l-13.16,5.86c-4.34,2-8.25,4.27-12.41,6.38l-6.18,3.23c-2,1.16-4,2.47-6,3.7l-11.8,7.33c-14.65,10.32-28.4,21.28-39.37,33.36s-20.77,24.38-28.57,37c-8,12.54-15.17,24.9-22,36.74-3.39,5.89-6.77,11.66-10.12,17.19s-6.91,10.84-10.24,15.93c-3.65,5-6.82,9.91-10.43,14.38s-7,8.74-10.52,12.59L1162.76,1056l-9.62,8.64c-1.46,1.29-2.83,2.52-4.12,3.67l-4,3-6.36,4.72Z" transform="translate(0 -0.47)"/><path class="cls-1" d="M1060.46,1080l6.64-4.12c4.46-2.58,10.46-6.86,17.89-12.09,7-5.68,16.1-12.4,24.39-20.83,4.57-4,8.5-8.77,12.85-13.66,4.58-4.8,8.21-10.32,12.56-15.83A341.39,341.39,0,0,0,1157.5,976c7.32-13.57,14.13-28.18,22.56-43.13s17.65-30.44,30.44-45.19c3.06-3.73,6.73-7.26,10.09-10.91a126.12,126.12,0,0,1,11.12-10.56c3.94-3.42,7.6-7,12.13-10.13l13.3-9.84a341,341,0,0,1,61-31c21.92-8.62,45-14.8,67.15-20.5s43.92-10.26,64.08-15.18,38.91-10,55.75-15.28c8.19-2.93,16.4-5.37,23.51-8.46,7.27-2.93,14.34-5.57,20.35-8.67,12.63-5.65,22.42-11.65,30.87-16.35,7.86-5.07,14.2-9.1,18-12.08l6.12-4.46-5.43,4.87a209.55,209.55,0,0,1-16.36,13.26c-7.89,5.19-17,11.9-29.4,18.22-11.93,6.64-26.63,13.12-43.27,19.4-4.1,1.67-8.55,3-12.94,4.54s-8.89,3.14-13.6,4.48c-9.34,2.84-19.07,5.71-29.16,8.37-20.12,5.52-41.55,10.75-63.21,16.58s-43.55,12.45-64.37,20.64a322.34,322.34,0,0,0-57.86,30l-12.1,8.87c-4.31,2.9-7.78,6.28-11.54,9.5a115.92,115.92,0,0,0-10.62,9.91c-3.23,3.46-6.74,6.77-9.71,10.3-12.21,14-22,28.75-30.69,43.32s-16.45,29-24.63,42.54c-4,6.79-8.21,13.34-12.44,19.62-2,3.18-4.5,6.16-6.66,9.16s-4.26,5.95-6.74,8.71a214.21,214.21,0,0,1-28.86,29.15c-9.48,8.39-19.28,14.42-27,19.73q-12.53,7.58-19.75,11Z" transform="translate(0 -0.47)"/><path class="cls-1" d="M967.48,1080s3.17-1.25,9.13-3.57l10.95-4.3,14.17-6.4c2.62-1.22,5.51-2.37,8.28-3.83l8.63-4.66,9.33-5c3.08-1.86,6.08-3.93,9.28-6s6.45-4.2,9.82-6.4c3-2.19,6.23-4.86,9.47-7.37,6.89-5,12.7-10.71,19-16.54a242.85,242.85,0,0,0,33-41.4c9.68-15.45,18-32.32,27.3-49.8s19.15-35.74,33-53.31a233.92,233.92,0,0,1,52.56-48.89L1238,812.38c5.54-3.28,12-6.29,18-9.43a366.34,366.34,0,0,1,38.1-15.82c26.1-9.35,53.27-16,79.21-22.22s51-11.87,74-18.38a458.29,458.29,0,0,0,61.53-22.21c8.75-4.29,17.31-8.27,24.57-12.8,3.69-2.14,7.58-4.32,10.83-6.28l9.63-6.69c3.08-2.17,6.19-4.23,9-6.3l7.44-6.25,6.88-5.78c2.17-1.86,3.89-3.81,5.71-5.58l9.52-9.54,6.37-7.35,5.31-6.14-4.51,6.42-5.44,7.73c-2.31,3-5.28,6.3-8.51,10.07-1.67,1.86-3.22,3.91-5.24,5.89l-6.46,6.2-7.06,6.75c-2.6,2.22-5.49,4.38-8.36,6.69l-9,7.1c-3.57,2.48-7,4.64-10.7,7.08-7,5-15.65,9.29-24.37,14a412.39,412.39,0,0,1-62.07,24.64c-23.19,7.2-48.29,13.55-74,20s-51.76,13.57-76.68,22.51a343.93,343.93,0,0,0-35.91,15.11c-5.5,3-11.15,5.53-16.58,8.79l-15.93,9.84a223,223,0,0,0-50.14,46c-13.31,16.76-23.81,34.32-33.45,51.61s-19.05,34.18-29.73,49.79a238.26,238.26,0,0,1-36.63,41.79c-7.08,5.92-13.59,11.78-20.82,16.39-3.58,2.44-6.75,4.73-10.4,7.12l-10.66,6.12c-3.46,2-6.72,3.92-10,5.68l-10,4.71-9.17,4.34c-3,1.35-6,2.4-8.77,3.53-5.6,2.18-10.54,4.18-15,5.73L977,1077Z" transform="translate(0 -0.47)"/><path class="cls-1" d="M842.72,1080l45-12.31c14.19-4.08,31.48-9,50.17-16a337.18,337.18,0,0,0,58.36-27.49l14.5-9.2,13.77-10.52a219.78,219.78,0,0,0,24.93-23.69c15.5-17.14,27.57-36.83,38.82-57.65s21.71-43,36.91-64.6A230.66,230.66,0,0,1,1186,798.66l10.07-6.18c3.33-2,6.41-4,9.94-6,7.38-3.68,14.54-7.73,22.12-11A418.26,418.26,0,0,1,1275,757.75c32.07-10.24,65-17.24,96-24.84s60.18-15.71,85.65-26.13a318.7,318.7,0,0,0,35.32-16.85l15.34-9.07,13.93-9.94c4.81-3.16,8.29-6.64,12.19-9.9s7.7-6.41,10.82-9.85l9.62-9.79c2.9-3.27,5.49-6.55,8.13-9.67,10.39-12.58,17.69-24.21,23.77-33.76L1604,567.63l-3.91,8.15c-2.55,5.31-6.23,13.11-11.35,23-5.33,9.79-11.74,21.75-21.27,34.89-8.92,13.28-22.15,27.58-39.19,41.64l-13.35,10.29-15.72,10.08a310.3,310.3,0,0,1-36,18.28c-26,11.33-56,20.37-87.12,28.28s-63.34,15.49-94.19,25.37a396.91,396.91,0,0,0-44.53,17.05c-7.13,3.16-13.47,6.83-20.28,10.21-6.45,3.74-13.29,8.17-19.29,11.79a219.94,219.94,0,0,0-58,56.59c-14.69,20.76-25.88,42.43-37.7,63.39s-25.2,41.1-42,58.63a224.87,224.87,0,0,1-27.26,24.32l-14.7,10.39-15.55,9.15a331.1,331.1,0,0,1-61.77,26.33c-19.52,6.41-37.29,10.73-51.83,14.32s-26.22,5.92-34.11,7.64Z" transform="translate(0 -0.47)"/><path class="cls-1" d="M725.42,1080l12.83-4.85c8.45-3.05,21-7.4,37.57-12.12s36.89-10,60.07-16.1,49.08-13.39,75.42-23.46,52.28-23.68,74.87-41.33c6.24-4.33,10.75-9.14,16.11-13.79a83,83,0,0,0,7.36-7.41l7.14-7.68c2.25-2.64,4.29-5.39,6.46-8.09s4.47-5.38,6.3-8.26c3.87-5.67,8-11.32,11.38-17.28,14.54-23.54,25.69-49.24,41.8-74.56a236.66,236.66,0,0,1,68.08-70.44l11.34-7a127.65,127.65,0,0,1,11.86-6.81l12.74-6.53c4.22-2.21,8.78-3.89,13.14-5.86,17.53-7.74,36.32-13.8,55-19.32,37.62-10.86,75.81-18.34,110.77-28.14,8.86-2.3,17.26-5,25.69-7.65,4.27-1.24,8.21-2.83,12.26-4.24s8.1-2.84,12-4.35c15.44-6.29,30.13-13,43-20.64l9.56-5.74,2.37-1.42a25.18,25.18,0,0,0,2.12-1.44l4.44-3.13c2.89-2.09,6-4.11,8.65-6.22l7.75-6.27c2.66-2,5-4.24,7.33-6.41s4.73-4.3,6.94-6.48c4.13-4.49,8.62-8.72,12.16-13.24,15-17.72,25.73-35.17,34.86-50.75s16.79-29.34,23.93-40.43a280.25,280.25,0,0,1,18-25.28l7.21-8.64-6.4,8.92c-4.08,5.84-9.48,14.57-15.81,25.81s-13,25.15-21.11,41.07-17.68,33.91-32.3,52.43c-3.41,4.71-7.82,9.19-11.87,13.93-2.18,2.3-4.55,4.56-6.86,6.87a97.71,97.71,0,0,1-7.35,6.88c-2.64,2.26-5.29,4.54-8,6.83s-5.65,4.25-8.5,6.42l-4.32,3.2c-.82.57-1.25,1-2.38,1.69l-2.42,1.53-9.78,6.16c-13.18,8.25-28.3,15.49-44.21,22.31a511.56,511.56,0,0,1-51.3,17.41c-35.76,10.31-73.63,18.43-110.08,29-18.11,5.41-36,11.27-52.58,18.66-4.08,1.86-8.52,3.51-12.33,5.54l-11.61,6a117.45,117.45,0,0,0-11.43,6.62l-11.31,7-9.79,7.2a101.09,101.09,0,0,0-9.7,7.59l-9.07,7.94c-3.08,2.61-5.48,5.57-8.26,8.32-11,11.13-19.69,23.2-27.73,35.39-15.7,24.53-27.75,50-43.06,74.09-3.64,6-8,11.88-12.12,17.69s-9.11,11.32-13.76,16.83l-7.75,7.91a89.42,89.42,0,0,1-8.05,7.69c-5.84,4.86-11.23,10.11-17.42,14.2-23.89,17.92-51.86,31.71-79.43,41.31-27.52,9.84-54.28,16.32-77.9,21.75s-44.3,9.93-61,14.21-29.66,7.89-38.35,10.64Z" transform="translate(0 -0.47)"/><path class="cls-1" d="M638.94,1080l12.3-7c3.89-2.38,9.16-4.92,15.41-7.9,3.15-1.46,6.37-3.22,10.12-4.75l12-4.87a623.3,623.3,0,0,1,64-20.63c25.36-7,54.5-13.84,85.05-22.82,30.39-9.06,62.37-20.69,90-38.07l10.35-6.56,1.1-.69,1.22-.93,2.45-1.84,4.92-3.72c3.16-2.5,6.86-4.92,9.65-7.55s5.75-5.23,8.66-7.86a90.55,90.55,0,0,0,8.23-8.28c2.61-2.86,5.43-5.65,7.95-8.59,4.7-6,9.89-11.93,14-18.34,17.81-25.1,29.59-53.23,46.45-81.07a254.62,254.62,0,0,1,30-41l9.28-9.75c3.29-3.17,6.91-6.2,10.36-9.3l5.24-4.63,5.8-4.32,11.93-8.79,12.43-7.61,6.22-3.81,7-3.58c4.67-2.36,9.26-4.84,14-7.08l14.5-6.24a513.48,513.48,0,0,1,60.86-20.19C1271.7,690.89,1313.5,683,1350.8,671c37.68-11.47,70-27.38,95.67-46.16,25.72-18.5,43.06-40.05,56.51-60.5s23.52-40.16,33.91-57.23A302.85,302.85,0,0,1,1567.55,464c2.55-2.83,5-5.52,7.24-8s4.88-4.69,7-6.8a134.17,134.17,0,0,1,11.75-10.38l10.42-8.28-9.7,8.65a124.56,124.56,0,0,0-10.82,10.76c-2,2.18-4.35,4.41-6.42,7l-6.67,8.17a286.75,286.75,0,0,0-27.69,43.53c-9.21,17.24-18.12,37.13-31.07,58.23s-29.85,43.6-56.17,63.55c-25.66,19.86-59.48,37.52-98.33,49.56-38.48,12.66-80.39,21.27-120.68,32.38a490.45,490.45,0,0,0-58.38,19.56l-13.69,6c-4.4,2.1-8.51,4.36-12.8,6.52l-6.37,3.28-6.2,3.81-12.39,7.64L1115.88,767l-5.51,4-4.95,4.35c-3.27,2.92-6.71,5.75-9.84,8.74l-8.85,9.22a245.82,245.82,0,0,0-29.06,39.28c-16.54,27.11-29.31,55.33-48.12,81.23-4.36,6.55-9.9,12.7-14.92,18.93-2.71,3-5.68,6-8.53,8.92a101.86,101.86,0,0,1-9.05,8.6l-9.65,8.28c-3.17,2.77-6.75,5-10.08,7.48l-5.05,3.63-2.52,1.8-1.25.91c-.84.56-1,.63-1.58,1l-11.07,6.68c-29.55,17.66-63.14,29.09-94.36,37.77s-60.9,14.71-86.52,20.91a632.75,632.75,0,0,0-64.67,18.65q-6.42,2.37-12.14,4.49c-3.83,1.38-7.13,3-10.37,4.31-6.43,2.71-11.9,5-16,7.29Z" transform="translate(0 -0.47)"/><path class="cls-1" d="M569.37,1080l2.75-2.31c1.88-1.49,4.43-3.83,8.15-6.66s8.29-6.43,14.3-10.12,12.38-8.31,20.91-12.55c16.27-9.11,38.06-18.4,64.59-26.94,13.22-4.32,27.62-8.4,42.88-12.5s31.47-8,48.16-12.38c8.29-2.24,16.86-4.38,25.3-6.93l12.87-3.76,12.79-4.19,6.48-2.12,6.32-2.38,12.76-4.82c4.16-1.76,8.24-3.64,12.4-5.46s8.37-3.67,12.24-5.85l12-6.31c4-2.16,7.52-4.66,11.34-7l5.66-3.57c.85-.54,2.13-1.3,2.62-1.67l2.67-2q5.33-4,10.73-8.1c3.83-2.66,6.46-5.6,9.74-8.4,3-2.9,6.55-5.51,9.27-8.69l8.69-9.22c2.84-3.11,5.24-6.44,7.91-9.67,20.86-26.14,33.66-56.09,51-85.93a295.68,295.68,0,0,1,30.93-44.08c6.62-6.94,13-14,20.75-20.46a120.29,120.29,0,0,1,11.69-9.63l12.73-9.38a344.55,344.55,0,0,1,58.11-30,615.72,615.72,0,0,1,65.49-20.82c44.32-11.65,88.84-20.25,127.67-34.29,19.69-6.66,37.27-15.13,53.61-24.06l11.73-7.05,2.92-1.75c.56-.3,1.72-1.21,2.55-1.78l5.43-3.9c3.53-2.62,7.38-5.13,10.58-7.78l9.24-8a90,90,0,0,0,8.64-8.2c2.72-2.8,5.51-5.55,8.12-8.34l7.18-8.59,3.53-4.26,3.15-4.36,6.22-8.6,5.58-8.66c3.79-5.68,7-11.45,10.31-17,6.47-11.23,12.34-22.13,18.39-32.41s12.16-20,18.59-28.87c12.67-17.84,26.5-32.53,40-43.44,6.27-5.71,13-10.14,18.7-14.11,5.51-4.07,10.88-7.05,15-9.6s7.7-4.23,9.91-5.49l3.43-1.86-3.27,2c-2.13,1.33-5.45,3.16-9.45,5.82s-9,5.84-14.18,10.08-11.68,8.71-17.58,14.51c-12.68,11.12-25.44,25.94-36.91,43.86-11.65,17.89-21.61,38.91-33.83,61.75-3.16,5.69-6.16,11.55-9.81,17.4l-5.36,8.9q-3,4.42-6.06,8.92l-3.08,4.53-3.48,4.44-7.1,9c-2.6,2.94-5.39,5.85-8.11,8.81a94.37,94.37,0,0,1-8.79,8.75l-9.62,8.67c-3.28,2.84-6.91,5.32-10.39,8l-5.28,4c-1,.72-1.52,1.21-2.91,2.13l-3,1.89-12.06,7.59a326,326,0,0,1-55.6,25.8c-40.31,14.88-85.34,24.23-128.72,35.67a592.37,592.37,0,0,0-63,20.23,325.08,325.08,0,0,0-55.22,28.83l-11.5,8.47a108.25,108.25,0,0,0-11.06,9c-7.41,6-13.43,12.75-19.75,19.29a286.91,286.91,0,0,0-30,42.41c-17,29.2-30.9,59.5-53,86.63-2.84,3.35-5.4,6.79-8.44,10s-6.2,6.42-9.28,9.6c-2.88,3.24-6.75,6.16-10.13,9.2-3.56,2.92-6.82,6.19-10.62,8.69l-11,7.93-2.73,2c-1.34.94-2.12,1.32-3.21,2l-6.06,3.65c-4.08,2.38-7.92,4.91-12.13,7.11s-8.51,4.28-12.74,6.39a142.1,142.1,0,0,1-13,5.89c-4.4,1.83-8.71,3.71-13.08,5.46l-13.36,4.78-6.6,2.34-6.72,2.07-13.25,4.08-13.23,3.61c-8.7,2.46-17.4,4.47-25.86,6.6-33.93,8.23-65.17,14.92-91.75,22.77S634,1041.53,617.52,1050c-8.59,4-15.43,8.3-21.62,11.86s-10.92,6.87-14.95,9.53-6.67,4.94-8.65,6.37Z" transform="translate(0 -0.47)"/><path class="cls-1" d="M509.53,1080l9.3-10.52c3.42-3.25,7.2-7.52,12.51-12.1q4-3.44,8.52-7.4,5-3.7,10.56-7.89c3.77-2.91,8.18-5.36,12.56-8.27l6.81-4.34c2.32-1.48,5.05-2.77,7.65-4.22a329.18,329.18,0,0,1,35.67-16.86c13.4-5.32,28.1-10.49,44-15.21,7.94-2.41,16.17-4.74,24.68-6.93s17.18-4.47,26.07-6.73c17.74-4.53,36.28-9.07,54.85-14.53,9.4-2.58,18.57-5.68,27.94-8.74,4.7-1.52,9.14-3.39,13.78-5.08s9.25-3.44,13.61-5.5l13.43-5.95L844.34,933c2.12-1.15,4.34-2.23,6.41-3.43l6-3.8c3.9-2.49,8.33-5.16,11.87-7.54,15.86-11.47,29.35-23,41.29-36.58A282.12,282.12,0,0,0,940,838.42c8.72-15.15,16.45-30.95,25.47-46.72S984.22,760,997.29,745c3.05-3.83,6.85-7.38,10.25-11.09,1.8-1.82,3.38-3.73,5.36-5.46l5.9-5.23c4-3.45,7.67-7.08,12.24-10.22l13.44-9.89a339.33,339.33,0,0,1,61.71-31.4c22.33-8.8,46-15.34,69.45-21.42s46.89-11.29,69.41-17.15a585.37,585.37,0,0,0,64.23-20.24,332.5,332.5,0,0,0,54.13-27.66l.78-.47c-.17.14.37-.26.53-.37l1.45-1.05,2.91-2.09,5.8-4.18,5.76-4.15c1.8-1.4,3.36-2.86,5-4.28l9.88-8.52,8.84-9a105,105,0,0,0,8.18-9.17c2.51-3.12,5.28-6.11,7.54-9.27,4.54-6.31,9.15-12.48,13-18.81,8.11-12.49,14.86-25,21.59-36.9,3.36-6,6.59-11.85,10-17.55q4.89-8.6,10.28-16.62a264.56,264.56,0,0,1,22.61-29.64c15.92-18.07,34.12-31.75,50.09-42.21l11.67-7.06,11-5.76c6.82-3.58,13.14-6.1,18-8.41l15.64-6.27-15.14,6.77c-9.49,4.83-23.48,11.58-38.95,22.33-15.11,10.67-32.32,24.61-46.92,42.7-14.82,18-26.93,39.82-39.45,63.88-6.33,12-12.68,24.67-20.51,37.54-3.68,6.48-8.2,12.89-12.66,19.44-2.21,3.29-5,6.44-7.45,9.69a105.86,105.86,0,0,1-8.16,9.64l-8.9,9.55-10.27,9.28c-1.75,1.54-3.44,3.16-5.25,4.64l-5.63,4.24-5.65,4.26-2.84,2.14-1.42,1.07-.94.69-.8.5a324.52,324.52,0,0,1-56.25,29.62,598.2,598.2,0,0,1-66.07,21.48c-22.89,6.2-46.29,11.55-69.33,17.55s-45.85,12.42-67,20.84a320.6,320.6,0,0,0-58.65,30.12l-12.17,9c-4.34,2.93-7.79,6.36-11.59,9.6l-5.6,4.91c-1.88,1.63-3.39,3.44-5.1,5.16-3.23,3.51-6.86,6.84-9.78,10.49-12.51,14.24-22,29.64-31,45.11s-16.88,31.24-26.08,46.65a294.24,294.24,0,0,1-31.91,44.47,247.3,247.3,0,0,1-43.83,37.71c-4.59,3-8.76,5.34-13.11,8l-6.45,3.88c-2.22,1.22-4.57,2.33-6.83,3.49l-13.64,6.83-14.19,6c-4.62,2.07-9.49,3.79-14.32,5.49s-9.51,3.53-14.39,5c-9.73,3-19.26,6-28.89,8.52-19.12,5.27-37.9,9.55-55.78,13.81C675.36,993.88,643,1002,616.19,1012a331.76,331.76,0,0,0-35.8,15.63c-2.63,1.34-5.34,2.51-7.75,3.93l-7,4.18c-4.48,2.76-9.22,5.23-12.86,7.86-15.85,10.33-26,19.84-33.15,26.19C513,1076.45,509.53,1080,509.53,1080Z" transform="translate(0 -0.47)"/><path class="cls-1" d="M455.84,1080s.68-1,2-3,3.15-4.94,5.94-8.69A197.86,197.86,0,0,1,491.14,1037a236.48,236.48,0,0,1,24.72-20.05c5.11-3.44,10.38-6.66,15.88-10.2a92.81,92.81,0,0,1,8.85-5.08l9.51-5.06a112,112,0,0,1,10.13-4.9l10.69-4.8c7.31-3.16,15.22-6,23.18-9,16.34-5.57,33.93-10.92,52.59-15.73l58-14.9c19.94-5.17,40.09-11.09,59.76-18.34a306.51,306.51,0,0,0,56-26.56c4.15-2.65,8.83-5.48,12.6-8q6.09-4.53,12.22-9.12c4.36-3,7.5-6.26,11.17-9.42a112.45,112.45,0,0,0,10.34-9.87c27.28-27.23,42.32-60.26,60.6-93.32,9.08-16.59,19.32-33.33,32.66-49.21a242.55,242.55,0,0,1,48.74-44,334.78,334.78,0,0,1,65.33-32.81c23.6-9,48.47-15.87,73.11-22,49.13-12.32,98.2-22.43,138.65-40.79,20.14-9.1,38.65-19.26,54.16-31.24,2-1.48,4.15-2.93,6-4.42l5.27-4.56c3.42-3.09,7.21-5.9,10.3-9.16l9.39-9.6c3.06-3.21,5.61-6.61,8.41-9.87a296.19,296.19,0,0,0,27.25-40.22l22.15-39a336.08,336.08,0,0,1,23.36-35.4c4.59-5.35,8.74-10.68,13.44-15.59l7.13-7.2a77,77,0,0,1,7.26-6.81l7.49-6.36a75.89,75.89,0,0,1,7.55-6c5.29-3.72,10.19-7.34,15.25-10.74A291.23,291.23,0,0,1,1540,331a347.08,347.08,0,0,1,46.58-18.44c5.58-1.87,10-3.1,12.93-4l4.45-1.33-4.36,1.47c-2.86,1-7.18,2.35-12.61,4.4a361.85,361.85,0,0,0-45,19.64,275.68,275.68,0,0,0-28.54,17.11c-4.66,3.37-9.38,7.12-14.34,10.86a70.82,70.82,0,0,0-7.09,6q-3.43,3.15-7,6.4a72.36,72.36,0,0,0-6.74,6.83l-6.6,7.19c-4.34,4.92-8.13,10.24-12.33,15.56A357.7,357.7,0,0,0,1437.6,438l-20.9,39.36a295.23,295.23,0,0,1-26.54,41.51c-2.79,3.42-5.32,7-8.39,10.36s-6.3,6.74-9.47,10.15-7.13,6.6-10.7,9.94l-5.54,5c-1.91,1.59-4,3-5.93,4.54l-6,4.52-3,2.27-1.51,1.13-1,.73-.84.53L1324,576.52c-4.45,3-9.68,5.38-14.62,8s-10,5.28-15.43,7.51c-21,9.73-44.4,17.41-68.31,24.1s-48.51,12.49-72.82,18.6-48.29,12.85-70.71,21.45a316.17,316.17,0,0,0-61.59,31.12,231.19,231.19,0,0,0-46.25,41.45c-12.78,15.09-22.8,31.21-31.86,47.59s-17.65,32.91-27.66,49-21.34,31.81-35.8,46a126,126,0,0,1-11.25,10.47c-4,3.35-7.69,7-12,9.84l-12.4,9c-4.87,3.17-9.28,5.67-13.92,8.5a327.15,327.15,0,0,1-59.29,26.9c-20.57,7.19-41.4,12.94-61.67,17.86S668.77,963.48,650,968s-36,9.58-52.33,14.64c-7.9,2.83-15.82,5.38-23.12,8.3l-10.68,4.44c-3.54,1.44-7,2.88-10.12,4.53l-9.46,4.69a90.37,90.37,0,0,0-9,4.77c-5.6,3.36-11.28,6.61-16.22,9.72a243.37,243.37,0,0,0-25.4,19.17,227.08,227.08,0,0,0-29.18,30.32c-3,3.65-5.06,6.56-6.52,8.49Z" transform="translate(0 -0.47)"/><path class="cls-1" d="M405.78,1080l6.94-12.59c4.83-8.12,11.75-20.15,23.62-34.51s28.91-31,53.93-46.72c24.59-15.79,57.66-30.5,96.35-41.3,19.2-5.73,39.68-10.7,60.63-16s42.5-10.85,63.68-17.73c10.71-3.29,21-7.33,31.39-11.31l15.09-6.68c5.14-2.16,9.65-4.93,14.55-7.38l7.23-3.81,6.74-4.24,6.8-4.23,3.42-2.13c.18-.1.79-.5.63-.38l.8-.59,1.61-1.2,12.91-9.6c4.12-3.26,7.57-6.67,11.42-10A229.07,229.07,0,0,0,861,804.08c10.41-16.31,19-33.51,28.45-50.84s19.8-34.86,33.42-51.56l5.06-6.27,5.71-6.06c3.86-4,7.51-8.13,12-11.86l6.48-5.73a69.75,69.75,0,0,1,6.79-5.57l14.7-10.83L989,645.92a86.81,86.81,0,0,1,8.25-4.55l8.63-4.44c5.67-3.1,11.75-5.54,17.72-8.13l9-3.85,9.32-3.41c24.81-9.16,50.88-16.13,76.62-22.49s51.29-12.16,75.52-19.16,47.11-15.21,67.63-25.22a252.43,252.43,0,0,0,53.79-34.77c3.6-3.27,7.63-6.22,10.85-9.69l9.93-10.15c5.92-7,11.92-13.92,16.8-21.13,10.22-14.25,18.52-28.72,26.35-42.86s15.34-27.88,23.85-40.8a225,225,0,0,1,61.38-64.85c23.32-16.82,48.16-28.33,69.41-36.29a528.47,528.47,0,0,1,51.29-15.9l18.7-4.66-18.36,5.23c-11.85,3.57-29.23,8.9-50,17.22s-44.41,20.22-66.46,37.22a224.79,224.79,0,0,0-57.3,64.5c-8,12.8-14.89,26.58-22.41,40.81s-15.36,29.07-25.42,43.86c-4.79,7.47-10.77,14.72-16.71,22.09-3.33,3.56-6.66,7.15-10,10.75s-7.53,7-11.29,10.52a252.5,252.5,0,0,1-55.65,36.88c-21.43,10.69-45.31,19.5-70.17,26.85s-50.65,13.4-76.12,19.74-50.68,13.19-74.29,22l-8.88,3.28-8.5,3.67c-5.64,2.47-11.47,4.82-16.54,7.64l-7.88,4.06a76.47,76.47,0,0,0-7.8,4.32l-15.34,9.46-13.36,9.84a62.11,62.11,0,0,0-6.42,5.23l-6.14,5.39a131.59,131.59,0,0,0-11.42,11.19L942.05,701l-4.86,6c-13.07,15.89-23.22,32.86-32.67,50s-18.31,34.5-29.34,51.23a241.34,241.34,0,0,1-39.95,47.27c-4.17,3.55-8.16,7.3-12.45,10.61l-13.06,9.52-1.62,1.18-.82.6c-.73.49-.72.45-1.12.7l-3.63,2.22-7.24,4.39-7.23,4.35-7.71,3.9c-5.21,2.51-10.06,5.33-15.49,7.52l-16,6.76c-10.95,4-21.72,8-32.82,11.24-22,6.77-44,12.13-65.17,17.11s-41.61,9.72-60.64,15.09c-38.43,10.3-70.7,23.58-95.83,38.57A228.57,228.57,0,0,0,439.13,1034a293.22,293.22,0,0,0-25.58,33.65Z" transform="translate(0 -0.47)"/><path class="cls-1" d="M357.32,1080l6.67-13.25c4.54-8.6,10.64-21.38,21.06-37a218.49,218.49,0,0,1,48-52.53l9-6.85,2.3-1.75.57-.44.4-.29.31-.19,1.26-.8,5.07-3.22,10.36-6.59c3.61-2.16,7.68-4.16,11.59-6.29,15.7-8.6,33.91-15.76,53.43-22.52s40.81-12.3,62.69-18,44.65-11,67.21-17.63,45.11-14.16,65.92-24.1c10.17-5.15,20.58-10.27,29.84-16.41l7.17-4.45.89-.55c.05,0,.53-.34.23-.12l.42-.32,1.69-1.25,3.38-2.52c4.36-3.38,9.35-6.66,13.26-10.16l11.8-10.53,10.77-11.4a239,239,0,0,0,18.68-24.33c11.32-16.83,20.49-34.66,30.28-52.71s20.19-36.38,34.09-53.89a235.46,235.46,0,0,1,52.24-48.28l16.3-10c5.39-3.26,11.82-6.23,17.7-9.34l4.5-2.31,4.68-2,9.36-4c6.13-2.82,12.75-5,19.2-7.43,26-9.36,53.27-16.38,80.07-22.95s53.31-12.78,78.3-20.39,48.57-16.55,69-27.88c5.27-2.68,9.87-5.87,14.81-8.75,2.29-1.45,5.16-3,7-4.36l6.79-5c9.5-6.52,16.72-13.28,24.37-20.09,14.77-14,26-29.21,35.8-44.36s17.89-30.47,26.21-45.23,16.69-29,26.72-42.2c19.3-26.56,45.59-48,72.68-63.43,27.2-15.62,55-25.38,78.09-32.31s42.17-11.11,54.94-14.17L1604,241,1584.62,246l-23.15,6.27c-9,2.72-19.47,5.48-30.73,9.31-22.63,7.39-49.49,17.62-75.27,33.43s-50.14,37-68.43,63.12c-9.41,13-17.13,27.17-25.07,41.91s-15.52,30.27-25.06,45.91-20.7,31.51-35.74,46.41c-7.77,7.33-16,15-25.12,21.36l-6.71,5c-2.67,2-5.08,3.26-7.65,4.93-5.15,3.08-10,6.47-15.47,9.33-21.33,12.09-46.08,21.64-71.74,29.72s-52.61,14.5-79.25,21.07-53.08,13.49-77.86,22.49c-6.14,2.31-12.46,4.42-18.23,7.11l-8.85,3.84-4.41,1.93-4.11,2.13c-5.43,2.92-11,5.42-16.37,8.67l-15.72,9.69a223.4,223.4,0,0,0-49.59,45.55c-13.36,16.68-23.63,34.48-33.42,52.4s-19.31,36-31.31,53.34-26,33.78-44.34,48.43c-4.32,3.74-9.1,6.79-13.59,10.21L774,852l-1.71,1.25-.42.31c-.61.41-.44.28-.7.45l-.95.58-7.61,4.64c-9.83,6.4-20.93,11.66-31.76,16.9-22.13,10.12-45.77,17.61-68.94,24.05s-46.28,11.6-68.22,16.87-43,10.55-62.27,16.88-37.2,13.21-52.58,21.08c-3.87,2-7.81,3.75-11.48,5.82l-10.67,6.35-5.23,3.11-1.29.77-.32.19-.19.14-.57.41-2.32,1.66-9.11,6.5A223.72,223.72,0,0,0,388,1030.7c-5.71,7.57-9.8,14.65-13.85,20.67-3.66,6.14-6.77,11.36-9.3,15.58Z" transform="translate(0 -0.47)"/><path class="cls-1" d="M308.62,1080s2.65-4.74,7.26-13.72,10.93-22.24,20.09-38.9c9.38-16.54,21.36-36.84,42.24-57.54a223.14,223.14,0,0,1,38.19-30.36l11.39-7.2,12.91-6.78,6.6-3.44,7-3.09c4.72-2,9.36-4.25,14.29-6.19C488.3,904.91,510,898.22,532.7,892s46.55-11.71,70.4-18.13,47.83-13.65,70.47-23a274,274,0,0,0,61.93-34.92l7.11-5.29,6.15-5.5a135.17,135.17,0,0,0,11.93-11.35A212.1,212.1,0,0,0,781.41,769c12.43-17.26,22.16-35.75,32.26-54.51s20.59-37.92,34.78-56.23a233.54,233.54,0,0,1,54-50.42l17-10.42c5.8-3.34,12.36-6.47,18.52-9.7a391,391,0,0,1,39.45-16.22c27.2-9.55,55.67-16.63,83.54-23.4s55.34-13.37,81-21.73,49.32-18.57,69.79-30.91l7.62-4.65c1.14-.73,2.82-1.63,3.52-2.22l3.57-2.6c4.64-3.47,9.68-6.86,13.94-10.37l12.15-10.6c3.77-3.7,7.36-7.51,11-11.23,14-15.23,24.75-31.36,34.24-47.42s17.75-32.09,27-47.38,19.14-29.87,30.83-43.15c2.9-3.32,6.18-6.45,9.2-9.62l4.59-4.7,5.07-4.41,10-8.63,10.86-7.79,5.33-3.81c1.88-1.41,3.74-2.37,5.59-3.56,3.72-2.27,7.23-4.57,11.18-6.65,7.62-4.33,15.32-8.14,23-11.66,30.77-14.05,60.93-22.11,85.52-28.42,24.75-6.16,44.5-10.35,57.8-13.52s20.38-4.88,20.38-4.88-6.93,2-20.07,5.45-32.53,8.4-56.93,15c-24.19,6.79-53.68,15.43-83.13,29.81-7.32,3.6-14.71,7.51-21.8,11.79-3.65,2-7.12,4.45-10.72,6.79a123.35,123.35,0,0,0-10.24,7.37l-10.24,7.74c-3.1,2.8-6.26,5.63-9.45,8.5l-4.79,4.32-4.32,4.63c-2.85,3.13-6,6.18-8.67,9.45-11,13-20.3,27.41-28.94,42.59s-16.39,31.31-25.59,47.71-19.77,33.16-33.9,49.25c-3.72,3.95-7.35,8-11.24,11.91L1251,482c-4.45,3.73-9.27,7-13.91,10.56l-3.53,2.62c-1.57,1.22-2.71,1.75-4.09,2.66l-8,4.95c-21.38,13.16-46.24,24.16-72.78,33s-54.53,15.72-82.33,22.52-55.48,13.8-81.44,23a369.94,369.94,0,0,0-37.28,15.43c-5.67,3-11.47,5.71-17.07,9l-16.38,10.09A221.78,221.78,0,0,0,863,663.37c-13.66,17.47-24,36.11-34.17,54.81s-20.27,37.55-33.48,55.41a226,226,0,0,1-22.05,25.79,145,145,0,0,1-13,12.07l-6.78,5.89-7.19,5.26a281.91,281.91,0,0,1-65.69,36.1c-23.91,9.51-48.81,16.65-73.17,22.82s-48.32,11.4-70.89,17.22-43.91,12.09-63.29,19.48c-4.85,1.84-9.39,3.92-14,5.84l-6.88,2.9L446,930.17l-12.55,6.3-11.68,7a225.93,225.93,0,0,0-38.52,28.76c-21.36,19.82-34.19,39.67-44.29,56-9.78,16.42-17.05,29.48-22.25,38.31S308.62,1080,308.62,1080Z" transform="translate(0 -0.47)"/><path class="cls-1" d="M257.85,1080l2.29-3.55c1.46-2.35,3.87-5.79,6.49-10.39,5.61-9.12,12.63-22.81,21.57-40.23S307.73,987,326,964.14a215.44,215.44,0,0,1,34.3-34.28c3.53-2.77,7.3-5.47,11.05-8.24,1-.72,1.72-1.32,3-2.14l3-1.9,6.13-3.85c7.85-5.32,17.51-10,27-15a461.93,461.93,0,0,1,64.67-24.43c23.35-7.07,48.18-12.94,73.26-19.35s50.53-13.25,74.82-22.25c6-2.29,12.23-4.44,17.93-7.14s12-4.9,17.37-7.94,11.36-5.63,16.59-8.84l15.48-9.59,14.87-11c4.76-3.73,8.71-7.63,13.14-11.44a220.37,220.37,0,0,0,22.85-25.19c13.71-17.67,24.21-36.78,34.59-56.28s20.87-39.49,35.34-58.62c3.86-4.71,7.49-9.49,11.55-14.14,4.37-4.52,8.49-9.16,13.1-13.59,4.9-4.29,9.62-8.69,14.72-12.89l16.53-12.21,17.37-10.64c6.21-3.42,12.91-6.7,19.37-10,6.62-3.13,13.48-5.88,20.22-8.83,6.89-2.73,14-5.17,21-7.77,28.44-9.74,58.15-16.77,87.1-23.78s57.38-14.05,83.63-23.28,50.17-20.56,70.56-34.08l14.62-10.68a70.64,70.64,0,0,0,6.68-5.53l6.35-5.56,3.17-2.77,2.87-3,5.7-5.93c4-3.83,7.2-8,10.61-12.07,13.37-16.34,23.57-33.47,33-50.35s18.25-33.59,28.77-49.3a254.77,254.77,0,0,1,36.3-43.53c7.38-6.31,14.21-12.71,22.32-18.14,4-2.77,7.48-5.68,11.78-8.24,4.07-2.5,8-5,12.09-7.35a330.31,330.31,0,0,1,51-23.14c34-12.26,65.85-19.29,91.65-25.41s46.23-10.73,59.78-14.51c6.86-1.76,12-3.38,15.44-4.36L1604,174l-5.18,1.69c-3.43,1.08-8.43,2.84-15.18,4.78-13.37,4.11-33.37,9.55-59,16-25.51,6.63-56.91,14.29-89.73,27A313.46,313.46,0,0,0,1386.27,247c-3.93,2.39-7.77,5-11.76,7.52s-7.33,5.36-11.08,8.06c-7.72,5.35-14.15,11.65-21.13,17.83a242.56,242.56,0,0,0-34.12,42.75c-9.87,15.5-18.07,32.16-27.18,49.25s-19,34.74-32.43,51.9A148.56,148.56,0,0,1,1237.84,437l-5.9,6.23-3,3.12-3.39,3c-4.58,3.92-8.94,8.24-13.82,11.88l-15,11.07c-21.33,14.33-46.53,26.48-73.81,36.13s-56.34,17.06-85.29,24.18-57.94,14.17-85.08,23.61c-6.63,2.51-13.42,4.87-20,7.49-6.32,2.82-12.89,5.49-19,8.42-5.9,3.12-11.89,6-17.75,9.28l-17.3,10.69L863.37,603.2c-4.83,3.94-9.3,8.08-14,12.1-4.4,4.16-8.33,8.56-12.52,12.82-3.9,4.4-7.41,9-11.14,13.44-14,18.26-24.47,37.78-35.07,57.25s-21.48,39.06-35.93,57.41a230.46,230.46,0,0,1-24.26,26.37c-4.76,4.07-9.32,8.4-14.24,12.2l-15,11c-21.9,14.54-46,26-71.59,35s-51.71,15.72-77.1,21.83-50.15,11.66-73.18,18.3a456.82,456.82,0,0,0-63.52,23c-9.11,4.67-18.31,8.9-26.48,14.23l-6.24,3.76-3.09,1.87c-.75.44-1.82,1.26-2.71,1.87-3.69,2.66-7.51,5.17-11,7.81a217.82,217.82,0,0,0-34.95,32.78c-18.89,22.09-30.28,43.22-40.12,60.4-9.59,17.27-17.68,30.73-23.78,39.73-2.89,4.54-5.5,7.9-7.1,10.21Z" transform="translate(0 -0.47)"/><path class="cls-1" d="M202.86,1080l2.95-3.5c1.85-2.35,5-5.67,8.39-10.28,7.12-9.08,16-22.92,25.77-40.89,9.95-17.94,19.83-40.31,35.63-65a216.66,216.66,0,0,1,30.33-37.77l4.73-4.78,5.28-4.59c3.64-3,7-6.3,11.14-9.16s7.82-5.93,12.37-9l13.28-8.31a359.72,359.72,0,0,1,64.11-29.15c23.78-8.22,49.48-14.88,75.72-21.49s53.13-13.19,79.11-21.76,51-19,73-32.56l8.23-5.1,2.07-1.27,1.72-1.26,3.87-2.88c5-3.87,10.82-7.59,15-11.66a210.42,210.42,0,0,0,25.18-25.41c15.11-18,26.43-37.79,37.29-58s21.55-41,36.2-61a227.37,227.37,0,0,1,57.34-55l18.34-11.24c6.64-3.52,13.5-7,20.25-10.42,7-3,14-6.1,21.14-9.05,7.33-2.63,14.55-5.43,22-7.9,29.73-9.86,60.66-17,90.71-24.36s59.42-14.93,86.2-25.1,50.73-22.82,70.72-37.73c2.55-1.9,5.25-3.76,7.65-5.68l6.65-5.84,6.63-5.81,6-6.21,6-6.19c1.9-2.1,3.55-4.29,5.34-6.43l5.3-6.39c1.75-2.14,3.2-4.39,4.81-6.56,12.72-17.49,22.51-35.59,32.33-53.25S1261.26,297,1273.48,281a235.55,235.55,0,0,1,43.23-43.1l12.55-9.08c4.51-3,8.81-5.48,13.16-8.2,4.14-2.72,9.11-5,13.62-7.51,2.31-1.2,4.56-2.44,6.88-3.59l7.09-3.18a407.24,407.24,0,0,1,56.13-20.41c36.73-10.63,70-17.28,96.62-24s47.27-12.55,60.77-17.35c6.85-2.26,11.78-4.39,15.27-5.64l5.2-2-5.09,2.12c-3.4,1.34-8.22,3.61-15,6-13.27,5.11-33.47,11.79-60,18.85-26.44,7.23-59.43,14.55-95.22,25.74a390.24,390.24,0,0,0-54.11,21.05c-17.6,8.56-35.44,18.8-50.78,31.26a223.94,223.94,0,0,0-40.73,42.19C1271.61,300,1262.32,317,1253,334.77s-18.75,36.2-31.41,54.42c-1.61,2.27-3,4.59-4.8,6.83l-5.34,6.74c-1.84,2.22-3.55,4.51-5.51,6.71l-6.18,6.51-6.25,6.54-7.11,6.31-7.17,6.32c-2.48,2-5.1,3.82-7.65,5.75-20.76,15.68-46,29.33-74,40s-58.14,18.68-88.27,26.14-60.42,14.67-88.86,24.25c-7.1,2.4-13.93,5.09-20.92,7.63l-20,8.64-18.49,9.6-17.73,10.94a216.23,216.23,0,0,0-54.7,51.88c-14.24,19.15-24.92,39.52-36,59.81s-22.88,40.61-38.85,59.4a220.47,220.47,0,0,1-27,26.85c-4.77,4.51-10.28,8-15.41,11.88l-3.9,2.85-2.18,1.58-2.19,1.34L654.36,789c-23.31,14.1-49.7,25.2-76.8,33.62S523,837.46,496.71,843.75,445,856.28,421.65,864A354.07,354.07,0,0,0,359,891.37c-37,21.09-61.28,46.6-77.81,70.65s-27.5,46.29-38.24,64.08c-10.49,17.88-20.41,31.48-28,40.42-3.62,4.53-7,7.76-9,10.06Z" transform="translate(0 -0.47)"/><path class="cls-1" d="M140.94,1080l14.89-13a242.1,242.1,0,0,0,33.25-40.42c12.15-18.21,23.06-41.29,37.21-67.56a282.53,282.53,0,0,1,26.48-40.94c2.89-3.44,5.42-7.08,8.72-10.48l9.91-10.38c7.4-6.67,14.8-13.61,23.8-19.9l6.55-4.88c2.56-1.77,4.78-3,7.21-4.59,4.87-2.93,9.3-6.1,14.67-8.91l16.27-8.51,17.36-7.69c23.79-9.86,50.17-17.8,77.52-24.93S490.47,804.1,518.21,796s54.91-18,79-31.12l4.61-2.4,4.29-2.66,8.61-5.32,4.32-2.67.54-.33c-.29.19.21-.17.28-.22l1-.75,2-1.51,8.15-6c5.78-4,10-8.25,14.81-12.41s8.87-8.8,13.26-13.27c16.84-18.32,29.3-38.71,40.59-59.76S722,614.75,737,593.82a228,228,0,0,1,59.14-57.56l19.14-11.7c7.07-3.59,14-7.34,21.23-10.74,7.39-3.08,14.54-6.49,22.14-9.28s15.1-5.78,23-8.09c31.11-10.08,63.39-17.37,94.62-25.05s61.59-16,88.81-27.32c6.65-3,13.67-5.58,19.79-9s12.84-6.26,18.45-10l8.72-5.33c1.33-.83,3.17-1.89,4.09-2.54l4.08-3,8.13-6,4-3,3.51-3.06a217,217,0,0,0,25.76-25.57,270.46,270.46,0,0,0,20.3-27.49c12.12-18.67,21.79-37.75,32.45-56.15s22.4-36.16,37.06-52.18c14.37-16.15,32.35-30,51.4-41.78,9.08-5.89,19.59-11,29.55-16l15.42-6.68c5-2.21,10.45-3.93,15.57-5.87a623,623,0,0,1,60.84-17.82c39-9.52,73.33-16.86,100.39-25a440.84,440.84,0,0,0,60.07-22.38l19.33-10-18.79,10.51A403.55,403.55,0,0,1,1526,129.7c-26.88,8.73-61.14,16.78-99.51,27a604.79,604.79,0,0,0-59.21,18.66c-4.91,2-10.11,3.77-15,6l-14.82,6.65c-9.42,4.93-19.1,9.72-28.25,15.84-18,11.58-35.08,25.11-48.55,40.87-13.79,15.64-24.84,33-34.86,51.34s-19.31,37.58-31.25,56.86a226.85,226.85,0,0,1-47.67,55.79l-3.78,3.31-4,3-8.07,6-4,3c-1.85,1.31-3.13,2-4.73,3l-9.15,5.65c-5.9,3.95-12.8,7.12-19.36,10.6s-13.76,6.38-20.74,9.52c-28.47,12-59.85,20.77-91.3,28.55s-63.16,15.18-93,25c-7.62,2.25-14.6,5.22-21.93,7.82s-13.93,5.94-20.94,8.88c-6.64,3.19-12.9,6.61-19.4,9.89L807.9,544.2a217.22,217.22,0,0,0-56.44,54.36C736.88,618.63,726,640,714.33,661.13s-24.59,42.29-42.42,61.45c-4.68,4.71-8.75,9.58-14.19,14-5.22,4.45-10.16,9.25-15.78,13l-8.19,6-2,1.5-1,.75-.74.53-.57.35-4.57,2.8-9.12,5.58-4.55,2.78-4.86,2.51c-25.55,13.74-54.07,24-82.71,32s-57.28,14.24-84.48,21-53,14.19-76.29,23.47l-16.94,7.22L330.26,864c-5.17,2.6-9.88,5.83-14.77,8.66-2.31,1.44-5.05,3-7,4.3-2.16,1.56-4.3,3.11-6.44,4.64-8.86,6-16.18,12.63-23.53,19l-9.88,10c-3.26,3.28-5.93,6.77-8.87,10.08a287.73,287.73,0,0,0-27.73,39.85c-15.12,25.83-27.07,48.89-40,67-12.62,18.22-26.11,31.24-35.48,39.89Z" transform="translate(0 -0.47)"/><path class="cls-1" d="M68,1080l4.94-2.87c3.27-1.89,8.19-4.65,14-8.64,6.2-3.75,12.61-9.15,20.72-15.2,7.34-6.43,15.85-13.74,23.72-22.74,8.23-8.82,15.81-19.21,23.38-30.67q10.86-17.4,21.4-38.12c7.25-13.73,14.45-28.53,23.94-43.74a237.87,237.87,0,0,1,36.7-45.82c15.4-15.07,35.33-28.86,58.24-41C318.39,819,345,809.13,373.42,800.9s58.24-15.07,87.86-22.95,59.11-16.88,85.8-29.45l19.41-10,17.88-11.1c5.65-4.22,11.52-8.42,17-12.71,4.86-4.45,10.05-8.69,14.72-13.32,18.85-18.63,32.65-39.76,44.79-61.66S684,595,699.41,573a230.74,230.74,0,0,1,61.52-60.73c6.62-4,13-8.09,19.87-12l11.08-5.69c3.72-1.86,7.32-3.89,11.24-5.44,7.75-3.22,15.19-6.84,23.31-9.58l12-4.37c4-1.42,8.15-2.62,12.22-3.93,32.7-10.36,66.61-17.7,99.13-25.91s63.94-17.45,91.63-30.14c6.91-3.16,13.34-6.73,20-10.05,6.26-3.66,12.29-7.47,18.43-11.18l16.92-12.34,14.68-12.9c18.71-18,32-37.86,43.74-57.74s21.81-40.05,34.11-59.14,26.9-37.1,45-52.64l6.72-5.81c2.28-1.9,4.87-3.61,7.28-5.41l7.32-5.3,3.8-2.74,3.88-2.35c5.19-3.1,10.2-6.24,15.39-9.25l16.58-8.39c22.32-10.44,45.5-18.35,68.09-24.72s44.59-11.23,65-16.11q30.75-7.07,56.62-14.39c17-5.1,32.47-10.2,45.59-15.74,13.35-5.28,24.26-11.05,33.81-16,8.94-5.43,17-9.73,22.55-13.93,5.95-4,10-7.24,12.84-9.44l4.27-3.33-4.09,3.43c-2.69,2.27-6.63,5.68-12.35,9.76-5.35,4.31-13.22,8.86-21.93,14.53a311.63,311.63,0,0,1-33.38,16.82c-13,5.83-28.41,11.26-45.43,16.71-17.17,5.22-36,10.41-56.37,15.5-40.39,10.38-87,21.36-129.72,42l-15.56,8.13c-5.05,3-10,6.24-15.14,9.39l-3.82,2.39-3.27,2.48-6.93,5.18c-2.27,1.76-4.73,3.42-6.89,5.28l-6.33,5.67c-17,15.15-30.8,32.64-42.29,51.45s-21.14,38.89-32.54,59.26-25.22,41-44.64,60c-5.13,4.67-10.45,9.35-15.77,14l-8.5,6.29-4.26,3.16-2.13,1.58-1.07.79-.53.39a9,9,0,0,1-.83.54c-6.41,3.93-12.75,8-19.33,11.86-7,3.54-13.78,7.32-21,10.67-29.06,13.47-61.71,23.21-94.62,31.61S888.92,470.91,857.52,481c-3.9,1.28-7.91,2.45-11.73,3.83l-11.39,4.21c-7.75,2.64-14.71,6.1-22.06,9.17-3.75,1.5-6.94,3.35-10.35,5.07l-10.11,5.21c-6.63,3.83-13.11,8-19.69,12l-8.48,6.25c-2.87,2.16-6,4.2-8.65,6.47l-7.88,6.9a92.12,92.12,0,0,0-7.62,7.05c-4.57,4.94-9.71,9.62-13.63,14.85l-6.26,7.66c-2,2.57-3.77,5.27-5.68,7.9-15,21.13-26,43.6-38.5,65.78s-27,44.12-47,63.67c-5,4.9-10.73,9.57-16.06,14.31-5.67,4.36-11.49,8.48-17.19,12.71-6.78,4.3-12.93,8-19.4,11.94q-10.23,5.31-20.52,10.48c-28.19,13.08-58.88,22.42-89.13,30s-60.12,14.1-88.06,21.91-54,17.05-76.35,28.42c-22.51,11.51-42.11,24.63-57.31,39-30.72,28.81-47,60.13-62.44,87.32-7.56,13.68-15.27,26.39-23,37.94-8.1,11.46-16.16,21.81-24.83,30.58-8.25,8.94-17.26,16.23-25,22.48-8.39,5.84-15.13,11.12-21.57,14.74-6.08,3.87-11.13,6.51-14.5,8.32Z" transform="translate(0 -0.47)"/><path class="cls-1" d="M0,1071l5.67-2.48c3.72-1.64,9.37-4,16.2-7.52a268.59,268.59,0,0,0,24.38-13.59,287.07,287.07,0,0,0,29.06-21.15c20-16.75,38.78-40,54.24-68.18,7.94-14,15.28-29.33,24-45.28s18.87-32.63,32.85-49,32.17-32.06,54.43-45.9l8.22-5.13c2.9-1.65,6.06-3.22,9.1-4.83l9.27-4.85c3.08-1.65,6.46-2.93,9.71-4.42,6.53-2.9,13.1-5.85,20.13-8.31l10.44-3.9c3.5-1.3,7.16-2.37,10.75-3.56,28.87-9.47,59.82-16.78,90.77-24.62s62.06-16.35,90.52-28.55,54.07-27.8,74.71-46.56c10.33-9.14,19.11-19.45,27.28-29.87,3.73-5.38,7.66-10.7,11.12-16.21s6.94-11,10-16.73c12.9-22.55,23.79-46.18,39.49-69a233.45,233.45,0,0,1,62.84-62.84l10.47-6.43c3.51-2.06,6.58-4.23,10.44-6.19l11.47-5.88,5.73-2.93c1.94-.93,4-1.74,5.94-2.61,8-3.43,15.83-6.94,24.21-9.8,4.15-1.48,8.23-3.07,12.42-4.46l12.69-4c33.93-10.56,69-17.89,102.54-26.57,8.47-2.07,16.62-4.47,24.86-6.74s16.09-5,24.08-7.49c15.52-5.51,30.71-11.36,44.48-18.4l10.3-5.27c3.47-1.72,6.44-3.83,9.68-5.73l9.52-5.81.6-.37c.25-.15-.05.06.34-.23l1.11-.81,2.23-1.63,4.45-3.26,8.86-6.51,7.62-6.7c2.49-2.27,5.21-4.37,7.5-6.76l6.87-7.15c18.15-19.16,30.74-40.11,42.4-60.93s22.52-41.66,36.58-61.09a228.08,228.08,0,0,1,52-52.24l7.71-5.58c2.9-2.07,5.51-3.43,8.27-5.17l8.12-4.91c1.36-.81,2.65-1.65,4.07-2.43l4.42-2.25c6-2.92,11.61-6.1,17.63-8.7s12-5.16,18-7.6c24.3-9.41,49.11-16.23,72.78-22.11S1402,93,1422.91,87.65c41.89-10.42,76.36-23,101.35-36.53,12.32-6.89,22.9-13.32,31.39-19.54a215,215,0,0,0,20.18-16.4c5.27-4.6,8.73-8.39,11.17-10.9l3.69-3.81-3.49,3.89c-2.31,2.57-5.59,6.44-10.63,11.17-9.72,9.6-25.46,23.2-50.25,37.29S1467,80.33,1425.17,91.55c-20.85,5.74-43.39,11.08-66.68,17.31S1311,122,1287.6,131.37l-17.27,7.55c-5.76,2.57-11,5.62-16.57,8.44l-4.15,2.16c-1.36.77-2.66,1.63-4,2.45l-8,5c-2.54,1.65-5.68,3.4-7.76,5l-7.29,5.45a215.65,215.65,0,0,0-49,50.9c-13.22,19-23.48,39.64-34.72,60.75-11.08,21.11-24.23,42.74-43,62.92l-7.16,7.52c-2.38,2.52-5.35,4.87-8,7.31l-8.24,7.27-8.82,6.54-4.43,3.27-2.21,1.64-1.11.82s-.65.48-.81.57l-.63.38-10,6.18c-3.4,2-6.53,4.24-10.17,6.07l-10.82,5.6c-14.47,7.48-30.36,13.67-46.52,19.47-8.25,2.63-16.46,5.42-24.86,7.84s-16.84,4.87-25.39,7c-34,8.93-68.8,16.35-101.39,26.66L813.16,460c-4,1.35-7.88,2.88-11.82,4.31-8,2.75-15.42,6.12-22.93,9.39-1.85.83-3.8,1.6-5.59,2.47l-5.22,2.71-10.46,5.39c-6.78,3.77-13.84,8.47-20.13,12.21a223,223,0,0,0-60,59.45c-15.31,21.94-26.33,45.34-39.6,68.24-3.16,5.75-6.88,11.41-10.39,17.09s-7.73,11.18-11.64,16.73c-8.66,10.9-17.75,21.51-29,31.37-21.76,19.56-48.94,36.1-78.93,48.66S445.32,759.48,414,766.94s-62,14.47-90.27,23.38c-3.51,1.12-7.12,2.13-10.53,3.35L303,797.33c-6.88,2.31-13.25,5.1-19.61,7.82-3.13,1.39-6.48,2.62-9.41,4.14l-8.83,4.46c-2.92,1.5-5.89,2.9-8.75,4.48l-8.33,5c-21.75,13.11-39.6,28.07-53.58,43.77S170.31,899.11,161,914.76s-17.18,30.85-25.72,44.88c-16.68,28.17-36.52,51.39-57.58,68.1a269.14,269.14,0,0,1-30.15,20.7,280.45,280.45,0,0,1-25.2,13.1c-7,3.4-12.78,5.59-16.59,7.15Z" transform="translate(0 -0.47)"/><path class="cls-1" d="M0,1030.77l4.89-2.9,6-3.55,7.85-5.17c3.06-1.89,6-4.28,9.41-6.86s7.14-5.35,11-8.47l11.44-10.46c4.09-3.7,7.64-8,11.82-12.39S69.93,971.6,74,966.58c3.82-5.13,7.39-10.64,11.19-16.35q10.67-17.38,21.13-38.05c7.18-13.71,14.53-28.42,24-43.59a234,234,0,0,1,37.18-45.46c4.1-3.61,8.05-7.37,12.42-11l14-10.47,1.77-1.33c.93-.63,1.36-.86,2.06-1.3l3.83-2.4,7.7-4.82c4.92-3.33,11-6.21,16.75-9.29,23.33-12.06,50-21.74,78.3-29.88s58.08-14.95,87.58-22.83,58.86-16.9,85.33-29.57c6.37-3.36,12.95-6.58,19.24-10.08,5.87-3.69,12.35-7.5,17.78-11.12,5.58-4.22,11.58-8.38,16.88-12.7,4.81-4.45,10.08-8.61,14.62-13.31,18.71-18.61,32.41-39.69,44.49-61.53S613.32,547,628.67,525a230.81,230.81,0,0,1,61.1-60.34l10.09-6.2c3.35-2,6.43-4.06,10-6l11-5.67c3.71-1.85,7.3-3.89,11.2-5.43,7.74-3.21,15.13-6.83,23.23-9.56l11.93-4.36c4-1.44,8.13-2.61,12.18-3.93,32.58-10.33,66.38-17.68,98.82-25.84s63.76-17.36,91.41-30c7-3.06,13.33-6.68,20-10,6.37-3.55,12.28-7.43,18.43-11.09l1.14-.71c.24-.14-.07.07.31-.21l.54-.39,2.14-1.57,4.27-3.12,8.52-6.24c5.2-4.25,9.84-8.57,14.78-12.81,18.85-17.8,32.13-37.63,43.91-57.43s21.76-39.9,33.93-58.94,26.54-37.05,44.35-52.65c8.67-8,18.52-14.83,28.62-21.75l15.29-9.24c5.31-2.94,11-5.65,16.39-8.43,22.12-10.58,45.1-18.61,67.58-25s44.4-11.31,64.78-16.14,39.31-9.44,56.53-14.22c8.48-2.56,16.68-5,24.3-7.53,7.46-2.77,14.89-5,21.37-7.86s12.91-5.2,18.43-8l15.56-7.71c4.63-2.57,8.71-5.12,12.56-7.37s7.37-4.26,10.19-6.33l7.69-5.28,5.27-4,4.3-3.28-4.13,3.38c-1.36,1.12-3,2.52-5.07,4.17l-7.4,5.47c-2.7,2.13-6.21,4.22-9.9,6.6s-7.71,5-12.23,7.7l-15.28,8.14c-5.47,2.89-11.85,5.4-18.29,8.37s-13.84,5.39-21.28,8.33c-7.59,2.73-15.77,5.3-24.24,8-17.16,5.13-36,10.23-56.26,15.3S1315,86.49,1293.08,93.15s-44.2,14.74-65.19,25.16c-5.08,2.71-10.34,5.28-15.44,8.18l-15.06,9.42c-9.08,6.45-18.77,13.37-26.82,21.09-16.78,15.2-30.33,32.69-41.7,51.48s-21,38.8-32.39,59.1-25.26,40.86-44.83,59.7c-5.25,4.59-10.41,9.38-15.84,13.84l-8.47,6.27-4.25,3.14-2.13,1.58-.52.39s-.63.46-.79.55l-1.2.74c-6.43,3.9-12.65,8-19.34,11.77-7,3.5-13.68,7.34-21,10.59-29,13.36-61.57,23-94.38,31.4s-66.12,15.77-97.4,25.85c-3.89,1.28-7.89,2.43-11.68,3.82l-11.35,4.2c-7.74,2.63-14.66,6.09-22,9.15-3.74,1.49-6.9,3.35-10.31,5.06l-10.07,5.19c-6.49,3.75-13.33,8.2-19.36,11.82a220,220,0,0,0-58.33,57c-15,21.06-25.94,43.44-38.4,65.56s-26.8,44-46.66,63.52c-4.82,4.93-10.65,9.55-15.93,14.29-5.57,4.47-11.42,8.48-17.1,12.72-6.55,4.37-12.83,8-19.23,11.94-6.64,3.66-13.59,7-20.34,10.54-28,13.18-58.58,22.53-88.71,30.16s-59.93,14.07-87.82,21.8-54,16.82-76.41,28-42.32,24.36-57.54,38.6a242.93,242.93,0,0,0-37.42,43.9c-9.9,14.76-17.79,29.28-25.5,42.86-7.55,13.63-15.13,26.32-22.75,37.87-4.06,5.7-7.88,11.2-11.94,16.31-4.36,5-8,10-12.37,14.32S57,990.73,52.69,994.41l-12.12,10.3c-4,3-7.94,5.7-11.42,8.22s-6.63,4.83-9.81,6.66l-8.13,5L5,1028Z" transform="translate(0 -0.47)"/><path class="cls-1" d="M0,983.94s5.26-4.48,14.78-13.05a242.58,242.58,0,0,0,33-40.45c12.07-18.21,22.92-41.28,37.1-67.51a279.54,279.54,0,0,1,26.58-40.86c2.91-3.43,5.38-7.09,8.77-10.45l9.91-10.35,11.34-10.07,2.88-2.55,3.2-2.39,6.46-4.82,6.54-4.87L167.8,772q3.57-2.22,7.17-4.48a77.93,77.93,0,0,1,7.56-4.39l16.26-8.49L216.15,747c23.8-9.8,50.18-17.69,77.49-24.8s55.62-13.67,83.32-21.82,54.81-18,78.86-31.16a85.43,85.43,0,0,0,8.86-5.07l8.6-5.32,4.32-2.67,3.84-2.82,8.13-6c5.78-4,9.88-8.24,14.75-12.39s8.82-8.82,13.23-13.27c16.81-18.31,29.2-38.69,40.49-59.72s22.23-42.7,37.19-63.61a228,228,0,0,1,59.09-57.49l19.12-11.69c7.06-3.58,14-7.32,21.2-10.73,7.39-3.08,14.52-6.47,22.12-9.27s15.07-5.78,23-8.09C770.79,391,803,383.7,834.24,376s61.53-15.94,88.74-27.25c6.62-3,13.67-5.55,19.78-8.94s12.85-6.22,18.45-9.95l8.72-5.33,4.1-2.51,4.07-3,8.12-5.95,4-3c1.3-1,2.36-2,3.55-3.05l7-6.11a68.65,68.65,0,0,0,6.67-6.27l6.25-6.51a67.26,67.26,0,0,0,5.92-6.61,275.62,275.62,0,0,0,20.32-27.45c12.13-18.64,21.8-37.69,32.43-56.07s22.3-36.14,36.88-52.16c14.31-16.16,32.24-30,51.18-41.83l7-4.28L1171,97.7l3.82-2,15.07-7.7,15.39-6.67c5-2.27,10.42-4,15.52-5.9a614.93,614.93,0,0,1,60.72-17.89c39-9.54,73.25-16.84,100.3-25a444.79,444.79,0,0,0,60.13-22.21C1454.6,4,1461.27.47,1461.27.47s-6.45,3.69-18.84,10.43a408.19,408.19,0,0,1-59.31,23.71c-26.87,8.68-61.11,16.68-99.41,26.88a587.83,587.83,0,0,0-59.08,18.73c-4.9,2-10.12,3.73-14.93,6l-14.79,6.65-14.17,7.49-3.59,1.9-3.44,2.16c-2.31,1.44-4.62,2.9-6.94,4.36-17.92,11.61-34.93,25.13-48.33,40.9-13.7,15.65-24.7,33-34.69,51.33s-19.28,37.54-31.22,56.79a226.55,226.55,0,0,1-47.75,55.69c-1.26,1.08-2.48,2.25-3.79,3.27l-4,3-8.07,6-4,3c-1.91,1.28-3.14,2-4.75,3L971,337.35c-5.89,3.94-12.83,7.07-19.36,10.57s-13.78,6.33-20.73,9.48c-28.46,12-59.82,20.7-91.23,28.47s-63.07,15.17-92.85,25c-7.62,2.25-14.58,5.23-21.9,7.81S711,424.59,704,427.53c-6.63,3.19-12.89,6.61-19.38,9.88l-18.47,11.37a217.3,217.3,0,0,0-56.4,54.29c-14.56,20-25.43,41.34-37.1,62.49s-24.51,42.25-42.3,61.4c-4.7,4.7-8.71,9.58-14.15,14-5.22,4.42-10.12,9.26-15.73,13l-8.19,6-4.33,3.14-4.56,2.79-9.11,5.57a91.49,91.49,0,0,1-9.38,5.31c-25.49,13.75-53.95,24.06-82.55,32s-57.21,14.24-84.38,21-53,14.13-76.28,23.35l-16.95,7.19-15.6,7.86a71.06,71.06,0,0,0-7.5,4.2l-7.28,4.4-7,4.26-6.43,4.64-6.37,4.59-3.16,2.28L148.5,795l-11.23,9.63q-5,5-9.88,10c-3.35,3.24-6,6.75-8.92,10a285.32,285.32,0,0,0-27.82,39.77c-15.15,25.78-27,48.82-39.93,66.91-12.54,18.21-25.9,31.26-35.23,39.93C5.5,979.59,0,983.94,0,983.94Z" transform="translate(0 -0.47)"/><path class="cls-1" d="M0,925.74l2.61-3.54c1.63-2.36,4.49-5.74,7.4-10.38,6.4-9.11,14.18-22.94,23.45-40.69s19.37-39.66,36.23-63.56a224.8,224.8,0,0,1,32.19-36.19c3.44-2.92,6.84-5.94,10.46-8.89L124,753.91c4.29-3,8.48-5.39,12.79-8.17l6.48-4.06c2.26-1.32,4.77-2.54,7.16-3.82,38-21.21,87.73-34.61,139.16-47.29,25.7-6.47,52-13.09,77.18-21.84s49.31-19.56,70.32-33.23l4-2.49,1-.63c.38-.24.07,0,.28-.17l.46-.35,1.91-1.41,7.6-5.63c2.48-1.89,5.22-3.74,7.5-5.68l6.6-5.88,6.62-5.89,6-6.35,6-6.38,5.38-6.68c14.45-17.86,25.38-37.31,36-57.2s21.25-40.29,35.76-59.9A230.08,230.08,0,0,1,618.88,417l18-11c6.44-3.46,13.22-6.84,19.82-10.23,6.84-3.09,13.8-6,20.69-9l21.52-7.84c29.13-9.77,59.48-16.89,89-24.07s58.46-14.51,85-24.23,50.55-21.83,70.54-35.91l7.59-5.56a67.54,67.54,0,0,0,7.11-5.62C962.41,279.65,967,276,971,272s7.89-8.06,11.55-12.17l10.36-12.54c13-17,22.84-34.65,32.46-52s19-34.31,30.36-50.19,24.24-30.73,39.82-43.39c1.9-1.6,3.67-3.26,5.65-4.79l6.13-4.43c4.15-2.93,7.86-5.87,12.26-8.69l12.55-7.73c4.39-2.45,8.91-4.77,13.29-7.1a386.1,386.1,0,0,1,53.79-21.67C1234.73,36,1267.35,29.3,1293.66,23s46.91-11.47,60.46-15.78c6.9-2,11.9-3.88,15.41-5l5.26-1.75-5.15,1.89c-3.44,1.19-8.34,3.24-15.13,5.39C1341.17,12.38,1321,18.33,1294.78,25S1236.43,39.25,1202,51.11a368,368,0,0,0-51.61,22.19l-12.47,7-12.35,7.87c-3.84,2.56-7.6,5.63-11.47,8.45l-5.81,4.36c-1.88,1.51-3.55,3.14-5.34,4.71-14.73,12.41-26.86,26.93-37.48,42.54s-19.52,32.48-28.64,49.93-18.65,35.55-31.66,53.29l-10.43,13.18c-3.8,4.31-8,8.51-12,12.8-4.17,4.24-9.13,8.26-13.72,12.42a70.58,70.58,0,0,1-7.31,5.84l-7.54,5.59c-21.27,15.19-46.34,28-74,38.21s-57.29,17.91-86.86,25.22S734,379.14,706.18,388.62l-20.47,7.57c-6.48,2.86-13.1,5.64-19.49,8.56-6,3.17-12.12,6.19-18.15,9.44l-17.39,10.74a218.86,218.86,0,0,0-53.95,50.81c-14.1,18.74-24.69,38.7-35.55,58.61S519,574.22,503.72,592.8l-5.68,7-6.41,6.67-6.39,6.64L478,619.43l-7.23,6.31c-2.45,2-5.1,3.8-7.63,5.71l-7.66,5.6-1.9,1.4-.48.35a7.62,7.62,0,0,1-.74.49l-1.06.66L447,642.57c-22.28,14.26-47.74,25.7-74.13,34.36s-53.28,15.14-79.18,21.32-51,12.11-74.19,19.28-44.88,15.36-63.1,25.16c-38,19.36-63.53,43.67-81.21,66.73S46.65,854.35,36.5,871.88c-10,17.62-18.79,31.22-25.68,40.21-3.19,4.57-6.24,7.86-8,10.18Z" transform="translate(0 -0.47)"/><path class="cls-1" d="M0,846.79l6.72-13.37c4.53-8.69,10.62-21.58,20.69-37.44S51.25,761.06,74,742.19c6-4.51,11.8-9.29,18.65-14l10.45-6.64,5.34-3.39c1.85-1.1,3.92-2.12,5.88-3.19l12.18-6.45c4.16-2.13,8.67-3.91,13.07-5.92,8.72-4.13,18.43-7.4,28.06-11.11,19.76-6.75,41-12.81,63.1-18.49s45.07-11.17,68-17.67,45.78-14,66.91-23.9c5.52-2.24,10.4-5.11,15.56-7.75l7.71-4,7.22-4.46,7.23-4.49,3.63-2.25,3.19-2.37,13.68-10.2a222.65,222.65,0,0,0,42.07-46.46c11.57-16.92,20.86-34.9,30.72-53.1s20.28-36.73,34.25-54.42a234.2,234.2,0,0,1,52.63-48.75L599.88,383c5.48-3.28,11.94-6.28,17.88-9.42a361.2,361.2,0,0,1,38.13-15.9c26.26-9.4,53.8-16.44,80.84-23s53.76-12.91,78.9-20.68,48.6-17.12,69.26-28.46a256.19,256.19,0,0,0,52.57-39c14.73-14.21,25.89-29.62,35.5-45s17.86-30.83,26.26-45.73a387.37,387.37,0,0,1,27.48-42.47c5.51-6.48,10.37-13,16.5-18.89,3-3,5.65-6,8.79-8.79s6.38-5.46,9.5-8.14c1.59-1.32,3.07-2.69,4.73-4l5.1-3.64,10-7.12c7.06-4.62,14-8.4,20.65-12.44,28.21-15.38,56.49-24.63,80-31.37S1224.71,8,1237.62,5L1257.5.47l-19.57,5.09c-12.72,3.37-31.5,8.18-54.62,15.35S1132.64,38,1106.15,53.38a235.24,235.24,0,0,0-71.06,62.73,372.23,372.23,0,0,0-25.79,42.12c-7.91,14.9-15.69,30.51-25.06,46.34s-20.4,31.93-35.39,47c-15.08,15.39-33.13,29.08-54.54,41.52-21.6,12.12-46.19,22.14-72.11,30.33s-53,14.78-79.93,21.4-53.62,13.57-78.66,22.6a343.64,343.64,0,0,0-36,15.11c-5.49,2.94-11.13,5.48-16.53,8.73l-15.87,9.78a222.6,222.6,0,0,0-50,46c-13.44,16.85-23.73,34.85-33.59,52.94s-19.53,36.36-31.8,53.79a234.19,234.19,0,0,1-45.28,48.7q-7,5.07-13.85,10.12l-3.68,2.66-3.85,2.36-7.69,4.68L397.88,627l-8.18,4.16c-5.51,2.7-10.73,5.64-16.57,7.91-22.43,10.09-46.38,17.54-69.87,23.82s-46.71,11.55-68.86,16.88-43.09,11-62.58,17.35c-9.45,3.49-19.06,6.55-27.61,10.45-4.32,1.89-8.82,3.59-12.84,5.57l-11.91,5.94c-2,1-4,1.9-5.83,3l-5.5,3.27-10.76,6.41c-6.52,4.24-12.62,8.94-18.67,13.18-23.07,17.95-37.67,36.51-48.33,52s-17.8,28.2-22.8,36.77Z" transform="translate(0 -0.47)"/><path class="cls-1" d="M0,762.82l8.37-11.35A218.43,218.43,0,0,1,37,721.19c3.43-3.11,7.69-6,11.81-9.31l6.46-5c2.37-1.76,4.84-3.16,7.34-4.81a285.61,285.61,0,0,1,34.61-19.39,403.25,403.25,0,0,1,44.17-17.55l12.32-4.07,12.89-3.73c8.66-2.61,17.71-4.83,26.87-7.31,36.65-9.6,77.25-18.44,115.65-33.29l7.25-2.73,7-3.09c4.61-2.11,9.46-4,14-6.33l13.4-7.06,3.37-1.78,3.14-2,6.29-4,6.33-4,1.59-1c.11,0,.88-.65,1.29-.94l3-2.24,12-9c7-6.29,14.4-12.26,20.54-19.28,26.31-27.11,41-59.71,59.12-92.34,9-16.34,19.11-32.86,32.41-48.48A244.24,244.24,0,0,1,548,369.28a335.6,335.6,0,0,1,64.36-32.45c23.21-9,47.75-15.73,72-21.81s48.44-11.65,71.66-17.83,45.35-13.3,65.54-22c10.35-4.1,19.49-9.21,28.86-14l13-7.91,3.25-2c.43-.27,1.32-.77,1.38-.84l1.52-1.1,6.07-4.37,6-4.35,3-2.16,2.6-2.24,10.35-8.91c3.37-3,6.26-6.28,9.39-9.38l4.59-4.69,4.06-4.88c22.06-25.84,35.2-53.17,49.47-77.83,3.68-6.17,7-12.26,10.87-18.09l5.54-8.67,6-8.3a234.28,234.28,0,0,1,26.09-29.72c18.47-17.83,39.42-30.81,57.11-40.5a354.32,354.32,0,0,1,45-19.26L1132.73.47,1116.3,6.63A375.54,375.54,0,0,0,1073,27c-17.23,10.16-36.9,23.29-54.11,41.2C1001.49,86,987.25,108.1,974,132.84s-25.66,52.47-47.63,79.62l-4.06,5.12-4.6,5c-3.17,3.29-6,6.72-9.53,10l-10.8,9.73-2.74,2.43-2.94,2.21-5.89,4.43-5.92,4.46-1.48,1.12a21.83,21.83,0,0,1-1.85,1.22l-3.34,2.11-13.56,8.42c-9.75,5.09-19.34,10.53-30.1,14.91-42.13,18.84-91.73,29.55-139.47,41.63-23.94,6.07-47.6,12.7-69.63,21.27a317.23,317.23,0,0,0-60.66,30.79,232.6,232.6,0,0,0-45.74,40.82c-12.74,14.82-22.58,30.74-31.6,46.86-18,32.13-33.87,65.51-61.86,93.86-6.46,7.19-14.74,13.83-22.35,20.41L386,588.07,383,590.26c-.62.43-.75.6-1.78,1.24l-1.7,1-6.78,4.08L366,600.67l-3.36,2L359,604.51l-14.27,7.18C340,614,334.83,616,330,618.08l-7.37,3.1-7.6,2.73C274.64,638.7,233.39,647,196.69,656s-69.62,18.51-96,30.21a287.7,287.7,0,0,0-35,18.22c-2.51,1.54-5.3,3-7.44,4.53l-6.6,4.72c-4.23,3.12-8.6,5.92-12.15,8.91a252.2,252.2,0,0,0-30.31,29.2C3.19,759,0,762.82,0,762.82Z" transform="translate(0 -0.47)"/><path class="cls-1" d="M0,700.25l10.76-9.12a263.35,263.35,0,0,1,35-23.07l13.16-7,15.26-6.89,4-1.81,4.28-1.65,8.83-3.4c5.92-2.41,12.37-4.47,19-6.68,26.48-8.84,57.77-16.59,91.42-25.14,16.69-4.46,34.15-9,51.29-14.84,8.77-2.68,17.1-6.08,25.75-9.3,4.34-1.6,8.32-3.61,12.54-5.41s8.53-3.57,12.39-5.78l12-6.34,3-1.6,2.82-1.77,5.65-3.57,5.69-3.59,2.86-1.8.71-.45c-.17.14.34-.25.48-.35l1.34-1L349,551.53a99.42,99.42,0,0,0,9.94-8.42c3.08-2.9,6.53-5.57,9.4-8.66l8.73-9.27c3-3,5.32-6.45,8-9.69,21.17-26.17,34-56.3,51.33-86.27a298.21,298.21,0,0,1,31-44.31c6.66-7,13-14.09,20.83-20.56A119.94,119.94,0,0,1,500,354.67l12.79-9.43a346.42,346.42,0,0,1,58.4-30.17,618.79,618.79,0,0,1,65.84-20.85c44.53-11.71,89.28-20.31,128.18-34.55C804.53,246,837,226.61,861.3,204.79c3.23-2.55,5.74-5.55,8.57-8.31,2.67-2.84,5.66-5.52,8-8.44,4.78-5.81,9.83-11.42,13.8-17.32,8.67-11.54,15.42-23.29,22.06-34.52,6.46-11.31,12.34-22.26,18.49-32.58,3.1-5.15,6-10.19,9.3-15s6.16-9.53,9.57-14,6.35-8.8,9.93-12.79l5-5.94,2.45-2.88,2.7-2.71,10.23-10.28,10.4-8.82a259.08,259.08,0,0,1,34.31-23.53L1039.76.47l-13,7.69a272.51,272.51,0,0,0-32.38,24.45l-9.75,9L975.19,52l-2.5,2.73-2.25,2.91-4.63,6a156.4,156.4,0,0,0-9,12.85c-11.89,17.91-22,39-34.19,62-6.28,11.44-12.69,23.44-21.16,35.43-3.86,6.1-8.86,12-13.6,18.08-2.35,3.05-5.35,5.9-8,8.89-2.85,2.94-5.3,6-8.67,8.85l-9.66,8.71L859,220.55l-2.63,2-5.28,4-5.31,4-2.67,2-.67.5c-.63.46-.61.4-.94.63l-1.5,1-12.12,7.63A137.54,137.54,0,0,1,815,249.48c-4.5,2.26-8.79,4.78-13.55,6.85l-14.32,6.28c-4.75,2.17-9.94,3.82-14.92,5.76a637.17,637.17,0,0,1-63.47,19.32c-21.78,5.71-44,10.85-65.82,16.64a594.81,594.81,0,0,0-63.36,20.26,326.51,326.51,0,0,0-55.51,29l-11.56,8.51a111.54,111.54,0,0,0-11.11,9.09C494,377.2,488,384,481.58,390.53a289.23,289.23,0,0,0-30.1,42.65c-8.59,14.67-16.26,29.64-24.74,44.3a298.1,298.1,0,0,1-28.69,42.71c-2.9,3.36-5.34,6.85-8.57,10l-9.33,9.64c-3.08,3.2-6.87,6.17-10.29,9.21a115.8,115.8,0,0,1-10.75,8.64l-11.07,8-1.37,1-.9.63-.77.46-3.06,1.84-6.1,3.67-6,3.63-3,1.81-3.23,1.62-12.79,6.43c-4.12,2.23-8.76,3.9-13.11,5.81s-8.68,3.82-13.21,5.4c-9.05,3.19-17.79,6.56-26.86,9.16-17.82,5.7-35.64,10-52.64,14.24-34.09,8.2-65.45,15-92.06,23-6.65,2-13.14,3.87-19.09,6.09l-8.88,3.11-4.32,1.51-4.06,1.69-15.44,6.39L47.8,669.72l-6.15,3L36.2,676l-10,5.81A96,96,0,0,0,18.08,687c-2.43,1.66-4.65,3.16-6.63,4.5Z" transform="translate(0 -0.47)"/><path class="cls-1" d="M0,651.18l12.28-7.06c2-1.11,4.15-2.51,6.79-3.77l8.59-4.19c3.15-1.47,6.37-3.24,10.11-4.78l12-4.9a609.73,609.73,0,0,1,64.09-20.78c25.4-7,54.6-13.87,85.22-22.83,30.44-9.07,62.56-20.62,90.26-38l10.38-6.57,1.3-.83.33-.2c-.28.2.1-.08.11-.09l.61-.47,2.45-1.85,4.93-3.71c3.19-2.52,6.81-4.95,9.72-7.56l8.68-7.88c1.42-1.33,3-2.59,4.31-4l4-4.28c2.63-2.87,5.41-5.67,8-8.59,4.67-6.06,9.93-11.94,14-18.36,17.86-25.14,29.69-53.31,46.55-81.2a256,256,0,0,1,30-41c11.64-13.35,26.6-25.35,42.41-36.68l12.71-7.81,6.25-3.8,7-3.6c4.68-2.36,9.27-4.85,14-7.08L531.6,293a511.8,511.8,0,0,1,61-20.21c41.44-11.37,83.29-19.32,120.65-31.34C751,230,783.29,214,809,195.11c25.68-18.55,42.92-40.22,56.38-60.69s23.5-40.26,33.93-57.36a300.32,300.32,0,0,1,30.87-43.13l7.29-8c2.29-2.52,4.91-4.68,7.1-6.79l6.22-5.79c1.88-1.77,4-3.2,5.62-4.58L966.84.47l-9.77,8.64c-1.54,1.43-3.48,2.92-5.2,4.76s-3.64,3.82-5.7,6-4.39,4.42-6.49,7L933,35a283.26,283.26,0,0,0-27.89,43.55c-9.25,17.27-18.16,37.2-31.09,58.34s-29.72,43.72-56.07,63.76c-25.64,19.9-59.44,37.69-98.35,49.76-38.54,12.7-80.52,21.35-120.89,32.46a491.65,491.65,0,0,0-58.49,19.58l-13.73,6c-4.41,2.09-8.53,4.37-12.82,6.53l-6.38,3.28L501.05,322l-12.14,7.49c-14.92,10.65-29.1,21.86-40.23,34.5a246.45,246.45,0,0,0-29.08,39.37c-16.54,27.17-29.36,55.43-48.24,81.36-4.36,6.57-10,12.72-15,19-2.79,3-5.72,6-8.58,8.92L343.49,517c-1.47,1.45-3.2,2.82-4.79,4.22L329,529.53c-3.23,2.71-6.78,5-10.12,7.46l-5.06,3.63-2.52,1.81-.63.45-.51.36-.35.22-1.4.84L297.35,551C267.7,568.64,234,580,202.7,588.67s-61,14.7-86.68,20.92a625.07,625.07,0,0,0-64.71,18.78l-12.14,4.52c-3.82,1.42-7.13,3-10.36,4.36l-8.88,3.83c-2.73,1.16-5,2.48-7.09,3.52Z" transform="translate(0 -0.47)"/><path class="cls-1" d="M0,609.5l12.8-5.45c8.4-3.47,21.12-8.3,37.87-13.57s37.67-10.81,61.63-17c12-3.13,24.67-6.47,37.88-10.2,6.61-1.86,13.27-3.92,20.16-5.92,6.7-2.24,13.73-4.32,20.57-6.84,27.43-9.83,55.8-22.74,79.45-40.32,5.94-4.56,12.51-9.07,17.48-14l8.08-7.29c2.52-2.57,4.91-5.25,7.39-7.89,10-10.55,18.28-22.14,26.06-34.12,15.33-24.12,26.72-50.52,43.08-76.64,15.75-26.19,38.78-51.65,69.2-72.52l12-7.33,5.84-3.58c1.94-1.19,4.3-2.27,6.43-3.4L479,276.68c4.44-2.14,9.05-4,13.58-6,8.9-4.12,18.61-7.2,27.93-10.72,9.65-3,19.12-6.3,28.9-8.87,38.8-11,78-18.68,113.85-29s68-23.38,94-39.66l4.94-3,4.47-3.17,9.15-6.49c2.86-2.18,5.4-4.41,8.09-6.59s5.37-4.29,7.7-6.65a188.62,188.62,0,0,0,13.8-13.75c4.42-4.56,8.13-9.3,11.84-13.91s6.84-9.34,10.18-13.84c3-4.64,6-9.12,8.78-13.58,5.55-8.89,10.52-17.43,15.16-25.49,9.25-16.12,17.58-30.17,25.32-41.48A248.84,248.84,0,0,1,896.82,9.08L904.93.47,897.6,9.38a285.15,285.15,0,0,0-18,26.06c-6.94,11.46-14.29,25.64-22.46,42-8.34,16.34-17.25,35-31.41,54.39-3.58,4.82-7.16,9.77-11.49,14.58A194.08,194.08,0,0,1,800.67,161a99.63,99.63,0,0,1-7.84,7.16c-2.76,2.35-5.48,4.82-8.36,7.12l-8.93,6.63-4.67,3.46-5,3.18c-26.46,17.45-60,31.94-96.7,42.66-36.68,10.87-75.79,19.19-113.41,29.92-9.54,2.53-18.56,5.73-27.85,8.64-8.84,3.4-18.14,6.36-26.52,10.29-4.24,1.89-8.68,3.67-12.78,5.66l-11.95,6.17c-2,1.07-4,2-6,3.16l-5.82,3.6-11.37,7c-28.76,19.61-50.66,43.36-66.18,68.82-16,25.31-28.31,51.64-44.46,76.33-8.3,12.26-17.07,24.26-27.94,35.13-2.7,2.72-5.28,5.46-8,8.13q-4.5,3.87-8.94,7.7c-5.75,5.31-12.25,9.54-18.39,14-25.64,18.31-55.65,30.93-84.31,40.41s-56.54,15.53-80.81,21.14S69,587.81,52,592.48s-30,8.91-38.7,12.09Z" transform="translate(0 -0.47)"/><path class="cls-1" d="M0,572.5l12.75-4.27c8.39-2.68,20.78-6.57,36.91-10.87s35.84-9.32,58.1-15.48,47-13.66,71.71-24.2a314.17,314.17,0,0,0,36.32-18.4c3.05-1.66,5.71-3.66,8.64-5.47l4.33-2.79,2-1.29,2.06-1.56c5.36-4.18,11.4-8.29,16.43-12.71a215,215,0,0,0,27.83-28.7l6.18-7.86,5.64-8.17c3.93-5.41,7.2-11.14,10.69-16.84C313.21,391,324.16,366.08,340,341.63a238.28,238.28,0,0,1,66.53-67.95l11-6.73c3.74-2.21,7.1-4.54,11.4-6.6,8.24-4.19,16.32-8.62,25-12.07,16.84-7.64,35.05-13.44,53-19,36.33-10.65,73.31-18,107.37-27.18s65.58-20,91.66-34c6.59-3.42,12.43-7.32,18.56-10.87l2.27-1.35,2-1.39,4.24-3c2.73-2,5.81-3.89,8.23-5.9a228.16,228.16,0,0,0,27.23-24.37c15.67-16.64,26.69-33.34,36-48.25s16.46-28.28,23-39.11C833.83,23,839.6,14.7,843.59,9.05L849.94.47,844.42,9.3c-3.51,5.78-8.23,14.36-13.94,25.36s-12.1,24.48-20.24,39.83-18.18,32.64-33.59,50.13c-3.94,4.32-7.87,8.79-12.52,13.06-4.31,4.42-9.49,8.64-14.62,13-2.53,2.23-5.35,4.08-8.07,6.15l-4.13,3.05-2.23,1.61-2.31,1.46c-6.24,3.81-12.22,8-19,11.67-26.71,15.08-59.3,27.08-94,36.65s-71.21,17.6-106.4,27.94c-17.32,5.45-34.75,11.06-50.6,18.35-8.32,3.34-15.52,7.39-23.07,11.22a122.12,122.12,0,0,0-11,6.46L417.75,282l-9.47,7c-3.19,2.41-6.67,4.66-9.44,7.31-5.79,5.15-11.94,10.12-16.87,15.68-10.82,10.67-19.16,22.39-27.26,34.05-15.39,23.68-27.19,48.24-41.53,71.61s-31.9,45.16-54.61,63.38c-5.5,4.56-11.46,8.41-17,12.56l-2.11,1.52c-1.11.74-1.64,1-2.49,1.56l-4.62,2.84c-3.11,1.85-6,3.84-9.26,5.5a334.24,334.24,0,0,1-38.59,18.2c-26,10.37-51.73,17.06-74.47,22.61s-42.85,9.75-59.18,13.62-29.08,7-37.67,9.39Z" transform="translate(0 -0.47)"/><path class="cls-1" d="M0,538.32l12.31-3.51c8.07-2.23,19.91-5.54,35.08-9.48s33.53-8.85,53.93-15.3c10.11-3.32,20.85-6.88,31.61-11.26A333.9,333.9,0,0,0,165.66,484a256.71,256.71,0,0,0,31.49-19.17l15.17-11.56,13.61-12.37c17.67-17.42,31.21-37.88,43.34-59.66,12.3-21.74,22.69-45.12,38.34-67.93A233.93,233.93,0,0,1,371,249.83c7-4.18,13.51-8.49,20.88-12.55l11.57-5.94,5.79-3,6-2.6,12-5.17c4-1.75,8.25-3.1,12.35-4.66s8.24-3.11,12.47-4.46l12.69-4c33.88-10.56,68.63-17.53,100.94-25.82s62.74-17.29,88.63-29.17L673,143.23l16.82-10c2.61-1.41,5.24-3.49,7.82-5.18s5.23-3.52,7.46-5.32l6.91-5.3,6.44-5.48a215.94,215.94,0,0,0,22-22,257.41,257.41,0,0,0,16.73-21.28c9.58-13.73,16.78-26.11,22.75-36.29s10.77-18.18,14.08-23.61L799.16.47,794.79,9,782.91,33.1c-5.2,10.39-11.47,23-20.11,37.25-8.82,14.12-20,30-36.69,45.46l-6.36,5.83-7,5.78c-2.33,2-4.83,3.77-7.31,5.61s-4.72,3.69-7.82,5.57l-17.08,10.77-19,10c-26.53,12.88-57.77,23-90.48,31.53s-66.88,16.26-99.49,26.44l-12.19,3.9c-4.06,1.3-7.9,2.87-11.87,4.3s-8,2.8-11.75,4.48L424.4,235l-5.66,2.48-5.27,2.73-10.56,5.44c-7,3.86-13.71,8.37-20.6,12.51l-8.88,6.53c-3,2.28-6.29,4.36-9,6.81l-8.23,7.21-4.12,3.6-3.69,3.82-7.33,7.63c-2.49,2.51-4.43,5.28-6.67,7.9s-4.44,5.26-6.38,8l-5.79,8.21c-15.16,21.94-26.41,45-39.29,66.95-12.7,22-27.73,43-46.85,60.9L221.06,458.6l-15.69,11.27a275.9,275.9,0,0,1-34,19.28c-23,11.24-46.56,18.75-67.54,24.69s-39.9,10-55.32,13.54l-35.87,8Z" transform="translate(0 -0.47)"/><path class="cls-1" d="M0,505.55l11.61-3.16,32.66-9.1c13.9-4.13,30.88-9.07,49-16.23,9.31-3.33,18.44-7.68,28.18-12.09,4.76-2.31,9.35-4.94,14.22-7.47,2.38-1.3,4.93-2.52,7.25-3.94l6.91-4.42,7.06-4.5,3.41-2.18,3.35-2.56c4.45-3.45,9.14-6.92,13.63-10.52l12.35-11.27c4-3.95,7.64-8.18,11.56-12.33,14.86-17.06,26.54-36.51,37.5-57.08s21.44-42.39,36.51-63.64a229.64,229.64,0,0,1,60.09-58.91l9.92-6.09c3.27-2,6.35-4,9.76-5.88,7.26-3.65,14.35-7.58,21.77-10.93a424,424,0,0,1,46.08-17.55c31.56-10.16,64-17.13,94.54-24.57s59.46-15.25,84.81-25.24c6.18-2.64,12.44-5.11,18.34-7.79l16.91-8.41c5.28-3,10.31-6.06,15.35-9l3.74-2.21,3.3-2.34,6.81-4.83,6.67-4.73c2.12-1.58,3.88-3.26,5.82-4.85,3.72-3.25,7.57-6.31,11-9.51,6.55-6.55,13-12.7,18-19,10.65-12.22,18-23.65,24.14-33C744.05,11.39,750.47.47,750.47.47s-1.34,2.78-3.85,8-6.16,12.91-11.35,22.58c-5.41,9.6-11.86,21.36-21.68,34.18-4.52,6.55-10.6,13-16.8,20-3.23,3.44-7.14,6.75-10.85,10.25-1.92,1.72-3.74,3.57-5.8,5.23l-6.4,4.9-6.52,5-3.48,2.65-3.74,2.4c-5,3.19-10.08,6.51-15.4,9.76l-17.21,9.13c-6,2.9-12.4,5.6-18.74,8.47-25.91,10.88-55.44,19.64-86.15,27.33s-62.34,15.3-92.66,25.08a404.54,404.54,0,0,0-43.79,16.88c-6.94,3.18-13.24,6.75-19.93,10.09-6.34,3.74-13.09,8.06-19,11.64a218.88,218.88,0,0,0-57.37,55.66c-14.56,20.4-25.71,41.71-37.28,62.36s-24.45,40.53-40.62,58c-4.27,4.27-8.25,8.55-12.59,12.62l-13.71,11.69c-4.76,3.53-9.59,6.84-14.26,10.17l-3.49,2.48-4,2.39-7.57,4.47-7.41,4.37c-2.49,1.4-5.18,2.6-7.72,3.88-5.17,2.48-10,5.07-15.13,7.24-10.36,4.18-20,8.27-29.75,11.31-19,6.61-36.52,10.95-50.79,14.6-14.36,3.49-25.78,5.95-33.54,7.64Z" transform="translate(0 -0.47)"/><path class="cls-1" d="M0,472.93l10.69-3.16c3.51-1,7.78-2.3,12.74-3.92s10.72-3.36,17-5.57a395.57,395.57,0,0,0,43.64-17.56l12.16-6.06,12.17-7c4.21-2.35,8-5.15,12.2-7.79,2-1.33,4.38-2.7,6-4.06l6-4.57,6.08-4.67,3.09-2.37,2.71-2.51q5.43-5,11.08-10.22l10.32-11.24c3.48-3.81,6.36-7.95,9.64-12,12.41-16.47,22.39-34.89,32.54-54.15s20.3-39.57,34.84-59.26c3.69-4.89,7.74-9.71,11.63-14.59l13.37-14.1c5-4.44,10-9,15.16-13.37l17.13-12.66,18-11c6.61-3.5,13.43-6.93,20.14-10.37l20.95-9c7.25-2.62,14.41-5.35,21.68-7.83,29.24-9.8,59.45-16.58,88-23.45s56-13.56,80.46-21.91c6-2.2,12.17-4.13,17.83-6.48l16.7-6.95,15.32-7.54L603,95.74l3.46-2,6.81-4L620,85.75c2-1.08,4.11-2.77,6.13-4.1,4-2.84,8.23-5.51,11.68-8.3l10.29-8.13,9-8.18a227.7,227.7,0,0,0,26.09-29.37c3.29-4.22,5.93-8.09,8.29-11.44s4.34-6.21,5.83-8.57L702,.47l-3.86,7.42c-1.21,2.43-2.81,5.4-4.83,8.86s-4.22,7.49-7.18,11.85a217,217,0,0,1-23.86,30.76l-8.49,8.72-10,8.89c-3.38,3.1-7.37,5.74-11.18,8.73-2.06,1.48-3.64,2.93-6.15,4.46l-6.65,4.27L613,98.79,609.55,101l-3.76,2-15.43,8.27-17,7.61c-5.78,2.54-12,4.68-18.16,7.08-24.94,9.15-52.65,16.67-81.22,23.78s-57.84,14.46-85.86,23.86c-6.95,2.41-13.73,5-20.65,7.56l-19.76,8.61q-9.18,4.76-18.4,9.55l-17.92,11.08-15.71,11.52-14.42,12.55L268.5,247.8c-3.74,4.65-7.64,9.22-11.23,13.89-14,18.86-24.82,38.57-35.46,57.79s-21.76,37.87-35.33,54.66c-3.58,4.13-6.74,8.34-10.53,12.22l-11.31,11.42-12.4,10.48-3,2.55L146,413.1l-6.37,4.49a263.19,263.19,0,0,1-52.11,28.6,418.81,418.81,0,0,1-45.69,16.06c-6.49,2-12.43,3.53-17.62,4.83s-9.56,2.44-13.17,3.26Z" transform="translate(0 -0.47)"/><path class="cls-1" d="M0,439.24l9.58-3.37c6.24-2.22,15.16-5.71,26.29-10.35A315.26,315.26,0,0,0,73.36,406.4c3.35-2,6.88-4.11,10.19-6.46l5.15-3.5,1.3-.89.33-.22.2-.15.61-.49,2.5-1.95,10.36-8,2.68-2.06,2.37-2.19,4.8-4.45c6.76-5.79,12.45-12.64,18.7-19.46q4.14-5.35,8.44-10.88c2.94-3.65,5.24-7.62,7.95-11.48,10.33-15.7,19-32.93,28.46-50.84s19.37-36.64,33.42-54.7a231.15,231.15,0,0,1,23.83-26.32c4.73-4.08,9.16-8.36,14.18-12.31l15.88-11.74,16.69-10.21c5.78-3.33,12.34-6.44,18.47-9.65A391.35,391.35,0,0,1,339,142.34c26.82-9.47,54.71-16.12,81.28-22.49s52.21-12.21,75.52-19.16c5.75-1.82,11.65-3.37,17.06-5.35l16.17-5.68c10.15-4.21,20.27-8,29-12.63l6.65-3.26L568,72.16l3-1.77,11.76-6.87c4-2.13,7.25-4.51,10.8-6.85s6.57-4.61,9.61-6.86A230,230,0,0,0,631.55,24.6c6.89-7.48,12.08-13.5,15.37-17.69l5-6.44s-1.47,2.33-4.2,6.71a204.46,204.46,0,0,1-13.41,18.54,217.75,217.75,0,0,1-26.46,26.82C605,55,602,57.58,598.71,60s-6.52,5.09-10.37,7.46c-7.48,4.89-15.28,10.13-24.48,14.75-8.73,5-18.88,9.29-29.14,14l-16.38,6.28c-5.52,2.17-11.45,3.89-17.29,5.89-23.61,7.66-49.34,14.25-75.71,20.84S372.15,142.9,346.52,152a370.65,370.65,0,0,0-36.95,15.37c-5.64,3-11.41,5.71-17,9L276,186.56l-14.53,10.66c-4.78,3.7-9,7.73-13.48,11.56a221,221,0,0,0-22.88,24.9c-13.49,17.24-24.06,35.31-33.9,53s-19.61,35.07-31,51c-3,3.93-5.53,7.92-8.75,11.64s-6.28,7.41-9.34,11c-6.95,6.9-13.22,13.71-20.81,19.66-7,6.3-14.6,11.4-21.77,16.37l-2.68,1.85-.66.45-.45.31-.36.22-1.43.86-5.6,3.35c-3.61,2.27-7.42,4.23-11,6.18a340.8,340.8,0,0,1-39.82,17.8c-11.6,4.27-21.1,7.12-27.55,9Z" transform="translate(0 -0.47)"/><path class="cls-1" d="M0,403.11l8.16-3.8C13.6,396.94,21,393,30.37,387.94c9.07-5.26,20.09-11.77,30.74-20.3,5.44-4.31,11.52-8.81,16.56-14q4-3.78,8.23-7.77,3.81-4.2,7.77-8.6a244.13,244.13,0,0,0,28.26-40c8.59-14.7,16.29-30.63,25.06-47.09s18.59-33.53,32-49.91l5-6.17,5.64-6a137.59,137.59,0,0,1,11.89-11.74l6.41-5.69a65.07,65.07,0,0,1,6.74-5.52l14.58-10.79,15.3-9.35a84.59,84.59,0,0,1,8.19-4.52l8.57-4.39c5.62-3.06,11.62-5.51,17.54-8.05l8.86-3.8L296.9,121c24.32-9.07,49.75-15.62,74.16-21.57S419.17,88.28,441,82.51a503.9,503.9,0,0,0,59.43-19l12.79-5.23,11.61-5.59c7.8-3.45,14.33-7.45,20.67-11.07,6.51-3.49,11.74-7.32,17-10.79s9.18-6.93,13.22-9.92C583.18,14.6,589.1,9.6,592.61,6L598.26.47l-4.88,5.81a176.25,176.25,0,0,1-15.1,16,222.75,222.75,0,0,1-28.51,22.41c-6.09,4-12.39,8.4-20,12.31-3.7,2-7.51,4.13-11.49,6.19L505.52,69q-3.28,1.47-6.61,3l-7,2.73c-4.74,1.8-9.49,3.79-14.5,5.54-10.09,3.43-20.57,6.92-31.61,10-21.95,6.42-45.53,12.3-69.6,18.39s-48.29,13.14-71.47,21.79L296,133.69l-8.36,3.65c-5.58,2.43-11.3,4.8-16.33,7.6l-7.8,4a76.69,76.69,0,0,0-7.74,4.32l-15.22,9.42-13.3,9.76a59.22,59.22,0,0,0-6.4,5.18L214.72,183a128.05,128.05,0,0,0-11.36,11l-5.42,5.63-4.81,5.86c-12.88,15.59-23.24,31.93-32.38,48.11s-17.82,32.06-27.34,46.84c-4.62,7.42-9.79,14.48-14.9,21.26-2.61,3.38-5.56,6.57-8.24,9.77l-4.06,4.72-4.43,4.45-8.64,8.59c-3.08,2.7-6.23,5.28-9.27,7.79-5.9,5.19-12.32,9.32-18.19,13.38-11.86,8.28-23.62,14.32-33.33,19.22-9.94,4.72-18,8.1-23.71,10.16Z" transform="translate(0 -0.47)"/><path class="cls-1" d="M0,362.84l6.52-4.13c2.14-1.34,4.79-3,7.64-5.08l4.68-3.3a58.39,58.39,0,0,0,5.09-3.83l11.61-9.3c4.11-3.43,7.9-7.38,12.3-11.44a243.41,243.41,0,0,0,24.83-29.39,376.17,376.17,0,0,0,22.22-37.28c7.21-13.47,14-27.94,22.34-42.75s17.65-30.13,30.29-44.76a252.19,252.19,0,0,1,46-40.85l14.09-8.61c4.36-2.88,9.79-5.45,14.9-8.1,10.16-5.52,21-9.8,31.7-14.28C276,91.23,298.78,85,320.73,79.35s43.51-10.19,63.54-15c20.12-4.69,38.54-9.84,55.38-15a435.86,435.86,0,0,0,43.69-16.72c6.05-3,12-5.56,17-8.3l13.72-7.75c4.27-2.27,7.48-4.69,10.65-6.61s5.56-3.7,7.53-5.13L538.41.47,533,5.25c-1.77,1.58-4,3.52-6.76,5.65a121.17,121.17,0,0,1-9.79,7.29l-12.89,8.63c-4.76,3.11-10.55,6-16.42,9.3l-4.54,2.48-4.95,2.31-10.35,4.82c-3.47,1.74-7.36,3.15-11.26,4.69l-12,4.7C427.26,61,408.74,67,388.68,72.16L326.07,88.58C304.64,94.41,283,101,262.36,109.12c-10,4.29-20.5,8.5-29.57,13.53-4.68,2.47-9.47,4.69-14,7.7l-13.46,8.33A241.84,241.84,0,0,0,161.44,177a301.39,301.39,0,0,0-30.54,42.87l-24.39,42.15a322.71,322.71,0,0,1-25.33,37.22l-7,8.08a87.78,87.78,0,0,1-7,7.58l-7.17,7c-1.15,1.13-2.3,2.23-3.42,3.33l-3.71,3.07c-5,4-9.27,7.9-13.85,11.08L26.37,348c-3.69,2.67-7.77,4.74-10.89,6.61s-6,3.36-8.37,4.55Z" transform="translate(0 -0.47)"/><path class="cls-1" d="M0,316l4.54-4.3L10,306.53l3.46-3.28,3.5-3.88,8.12-9,8.55-11c3-3.94,5.67-8.33,8.77-12.83s5.72-9.46,8.79-14.49c5.68-10.25,11.39-21.45,17.39-33.4S80.82,194,88.62,181.07A235.91,235.91,0,0,1,117,142.31l9-9.36c3.1-3.1,6.69-6,10-9l5.11-4.48c1.8-1.44,3.74-2.8,5.61-4.22l11.6-8.54,12.09-7.41c2-1.23,4-2.48,6.09-3.68l6.75-3.5c4.53-2.28,8.92-4.75,13.54-6.85l13.91-6.08a471.31,471.31,0,0,1,57.59-19.1c19.18-5.24,38.05-9.48,55.79-13.5s34.39-7.88,49.62-11.69c7.49-2.07,14.78-3.92,21.54-5.92s13.21-3.88,19.06-5.9l16.37-5.75,13.43-5.48,5.77-2.36,4.85-2.31,7.67-3.66,6.41-3L463,4l-7,4.25-4.48,2.69-5.44,2.74-12.78,6.41-15.86,6.77c-5.72,2.37-12.09,4.54-18.67,7s-13.87,4.53-21.3,7c-7.54,2.22-15.4,4.56-23.59,6.84l-25.47,6.78c-17.5,4.57-35.81,9.38-54.36,14.75a506.17,506.17,0,0,0-54.75,19.18l-13.1,5.84c-4.32,2-8.22,4.25-12.37,6.36l-6.15,3.22c-2,1.16-4,2.46-6,3.69l-12,7.47-10.51,7.67c-1.78,1.31-3.64,2.58-5.36,3.93l-4.86,4.2c-3.18,2.83-6.62,5.52-9.59,8.43l-8.68,8.83c-10.86,12-20.73,24.28-28.51,36.84-8,12.49-15.14,24.8-21.91,36.59L70.17,238.62c-3.4,5.51-6.88,10.8-10.18,15.87-3.63,5-6.78,9.88-10.35,14.34s-6.91,8.72-10.44,12.56L29.15,292.07l-9.54,8.62-4.08,3.67-4,3-6.29,4.71Z" transform="translate(0 -0.47)"/><path class="cls-1" d="M0,257.81l2.58-4c1.64-2.61,4.26-6.4,7.05-11.31,3-4.84,6.17-10.86,9.91-17.73,3.53-6.93,7.36-14.77,11.52-23.36s8.43-18,13.62-27.8A278.37,278.37,0,0,1,62.59,143,209.14,209.14,0,0,1,88,111.72C97.9,101.48,110,92,122.67,83l10.08-6.27,5-3,5.46-3c3.65-1.94,7.24-4,10.93-5.81l11.21-5.24A382.17,382.17,0,0,1,211.7,42.58c15.52-4.83,31-8.66,45.59-12.06s28.51-6.4,41.3-9.17S323,16,333.3,13.6,352.46,9,359.67,6.93s12.9-3.62,16.77-4.73L382.37.47l-5.5,2.27c-3.63,1.43-8.76,3.8-15.77,6.22-6.89,2.59-15.44,5.48-25.39,8.63l-16,4.82-17.87,5L261.71,38.37c-14.18,3.89-28.89,8.25-43.69,13.16a419,419,0,0,0-43.67,17.16l-10.51,5c-3.41,1.74-6.61,3.61-9.94,5.4l-5,2.72-4.88,3.08-9.57,6c-12,8.42-23.61,17.21-33.13,26.83S83,137.14,75.85,147.19c-7.28,10-13.78,19.86-19.56,29.41L40,203.64l-7.44,12L25.43,226.4c-4.67,6.69-9,12.46-12.83,17.11-3.59,4.73-7.1,8.15-9.23,10.6Z" transform="translate(0 -0.47)"/><path class="cls-1" d="M0,178.87s1.45-4.07,4.23-11.12c1.39-3.52,3.12-7.8,5.3-12.66,1.07-2.44,2.22-5,3.42-7.77l4.26-8.53a211.65,211.65,0,0,1,10.71-19c1.88-3.4,4.58-6.67,6.92-10.15a99.42,99.42,0,0,1,8-10.39L52,88.78c3.19-3.51,7-6.79,10.7-10.19l5.58-5.09c2-1.65,4.16-3.19,6.24-4.79l13-9.73,13.78-8.29c2.32-1.37,4.5-2.78,6.93-4.1l7.66-3.83C121,40.26,126,37.6,131.2,35.45l15.54-6.18c5-2.13,10.33-3.7,15.43-5.37s10-3.39,15.09-4.66c10-2.74,19.35-5.32,28.25-7.2l12.68-2.87,11.55-2.3c7.23-1.46,13.59-2.63,18.82-3.56C259,1.44,265.07.47,265.07.47s-5.55,1.85-15.37,4.94L232,10.9C225.1,13,217.45,15.4,209.13,18S192,23.73,182.6,26.83c-4.76,1.49-9.23,3.49-14,5.26s-9.77,3.48-14.37,5.71l-14.36,6.35c-2.52,1-4.57,2.34-6.89,3.5l-6.9,3.53-7,3.55c-2.3,1.29-4.52,2.77-6.78,4.14L98.74,67.3,86.88,76c-2,1.49-4.1,2.92-6,4.45L75.5,85.18c-3.47,3.21-7.32,6.2-10.61,9.41l-9.44,9.67c-3.29,3.09-5.63,6.52-8.48,9.66-2.64,3.22-5.61,6.23-7.82,9.43-4.59,6.32-9.35,12.19-13.09,17.85S18.53,152,15.49,156.59L7.33,168.51C2.76,175.12,0,178.87,0,178.87Z" transform="translate(0 -0.47)"/><path class="cls-1" d="M0,94.89s.83-2.11,2.59-5.7c.89-1.79,1.93-4,3.3-6.42.68-1.23,1.33-2.55,2.17-3.91s2-2.74,3-4.22c2.12-2.94,4.43-6.15,7.1-9.48s6-6.54,9.42-9.95L32.83,50c1.8-1.73,4-3.28,6.06-4.93l6.37-4.91,6.81-5.07c4.71-2.84,9.4-5.7,14.14-8.43,2.4-1.36,4.56-2.77,7.17-4l7.77-3.6c5.14-2.31,10.08-4.6,15-6.42s9.64-3.33,14-4.74l6.24-2c2-.57,4-1,5.88-1.48,3.67-.94,6.94-1.64,9.61-2.24C137.19,1,140.3.47,140.3.47s-2.48,1.43-6.93,3.72c-2.23,1.13-4.91,2.53-8.05,4s-6.57,3.28-10.26,5.25-7.67,4.08-12,6.18-8.15,4.81-12.59,7.21l-6.68,3.7c-2.25,1.25-4.41,2.84-6.7,4.23-4.48,2.91-9.15,5.78-13.8,8.67l-5.94,4.36-6.27,4.46c-2,1.51-4.29,2.87-6.18,4.41l-5.59,4.56c-3.61,3-7.59,5.76-10.83,8.58-3.09,2.88-6.22,5.54-9.14,8s-5.65,4.76-7.83,6.94-4.32,4-6,5.46C2.11,93.24,0,94.89,0,94.89Z" transform="translate(0 -0.47)"/><path class="cls-1" d="M0,32.32a12.61,12.61,0,0,1,.57-2.2A30.73,30.73,0,0,1,3,24.83a27.91,27.91,0,0,1,5.24-6.64,72.88,72.88,0,0,1,8.09-6.73c1.93-1.19,3.2-2,4.91-2.89s3.26-1.69,4.89-2.45a59.28,59.28,0,0,1,10-3.59,76.7,76.7,0,0,1,8-1.69c2-.31,3.26-.37,3.26-.37a15.68,15.68,0,0,1-1.17,2.11,37.35,37.35,0,0,1-3.68,4.85c-.84.92-1.78,1.87-2.82,2.84s-2.14,2.08-3.38,3.11-2.51,2.13-3.93,3.14-3.08,2.14-4.21,2.89a74,74,0,0,1-8.79,5.34c-3.08,1.51-6.14,3-8.94,4.23a68.79,68.79,0,0,1-7.29,2.56C1.23,32.09,0,32.32,0,32.32Z" transform="translate(0 -0.47)"/></svg>