<?xml version="1.0" encoding="UTF-8"?>
<svg width="85px" height="29px" viewBox="0 0 85 29" version="1.1" xmlns="http://www.w3.org/2000/svg" xmlns:xlink="http://www.w3.org/1999/xlink" fill="current">
    <!-- Generator: Sketch 52.5 (67469) - http://www.bohemiancoding.com/sketch -->
    <title>coca-cola</title>
    <desc>Created with Sketch.</desc>
    <g id="V3" stroke="none" stroke-width="1" fill="current" fill-rule="evenodd">
        <g id="-1440---Desktop---Home---V2" transform="translate(-815.000000, -722.000000)" fill="current" fill-rule="nonzero">
            <g id="Clients" transform="translate(196.000000, 707.000000)">
                <g id="Group-10" transform="translate(619.000000, 15.000000)">
                    <g id="coca-cola" transform="translate(0.281165, 0.533951)">
                        <path d="M32.2391178,24.4467396 C29.1151974,22.3952265 24.8756361,22.0352275 18.0384397,23.9690588 C10.7494669,25.7152414 8.31921467,26.8346084 5.12760651,24.5875297 C3.90146145,23.4836753 3.46185843,21.7063606 3.79011774,19.1462486 C4.55147365,14.9728274 6.60897109,10.9565648 10.2636893,6.50156335 C12.3035565,4.18408962 14.1958748,2.1952688 16.6944445,1.39663796 C18.6094304,0.895634846 18.4303989,2.42988333 18.1986865,2.64930622 C17.9541711,2.64930622 17.5434272,2.68856912 17.2259769,2.89975429 C16.9683437,3.10345062 16.261138,3.76118437 16.2231489,4.64593682 C16.1683691,6.00034627 17.5432173,5.71844509 18.1362458,4.9748037 C18.775449,4.13680297 19.720139,2.53205245 18.977043,1.03642496 C18.6655745,0.504075718 18.1274307,0.136159914 17.4592635,0.0108823901 C15.1713129,-0.122418887 13.0405658,0.98945926 11.0739483,2.21869816 C6.77320568,5.26440768 3.33288442,9.48468759 1.38620598,14.1042294 C0.263953732,16.8914671 -0.751047555,20.8840864 0.770300012,24.1337063 C1.94733211,26.3884877 4.39070214,27.5861665 7.30589246,27.3357185 C9.35048201,27.1167235 11.8228161,26.4430492 13.4856258,26.0362985 C15.1485404,25.6287988 23.6601952,22.6461025 26.4569057,27.8374705 C26.4569057,27.8374705 27.3869038,25.9970356 29.7110594,25.9577727 C31.6218476,25.7780406 34.3784702,26.521682 36.3858053,28.0246914 C35.7170084,26.9993628 33.8209121,25.4882227 32.2391178,24.4467396 Z" id="Shape"></path>
                        <path d="M18.8165906,7.00639323 C17.2220897,5.94291138 14.0173217,7.97606045 11.4504592,11.4635501 C9.10316896,14.5918087 8.08960458,18.2276066 9.19272167,19.9088974 C10.8334704,21.8872322 13.8796292,19.0096446 15.1749903,17.4693963 L15.3421133,17.2893534 C16.2230304,16.3274863 16.9035049,15.1700829 17.562327,14.0594801 C17.562327,14.0594801 18.1677538,13.0429055 18.1966587,12.9958914 C18.5708461,12.9257975 19.0215528,12.8162759 19.5294386,12.667647 C19.5221861,12.6909404 17.5862918,15.9988145 17.7837913,17.6406775 C17.8452799,18.1415921 17.7984014,19.9714049 19.5557158,20.5264926 C21.8979608,20.9255788 23.7682672,19.0798453 25.4182655,17.4376618 C25.4182655,17.4376618 25.6994316,17.1642316 25.8584612,17.0081232 C25.8182045,17.171818 25.7657552,17.390327 25.7657552,17.390327 C25.0800253,19.8145485 26.0043523,20.3232632 26.5825559,20.5108924 C28.3299901,21.0274072 30.4175564,18.4466499 30.4243884,18.4466499 C30.3701523,19.2595676 30.2119635,19.9319771 31.0549363,20.4716783 C31.8505049,20.7612429 32.6557436,20.3197371 33.2678974,19.9052645 C35.472555,18.3258021 37.2486838,15.853498 38.683209,13.7165972 L37.7681316,13.7165972 C37.7573054,13.7165972 35.5101839,17.0276768 34.0509581,17.7473142 C34.0486457,17.7473142 33.7830358,17.8858991 33.6301024,17.7762706 C33.4405912,17.6120416 33.5153236,17.2704409 33.6323097,17.0285316 C33.6396673,17.0128246 39.266563,7.09187354 39.266563,7.09187354 L36.6098324,7.09187354 C36.6098324,7.09187354 36.319627,7.56917419 36.2959775,7.60048135 C36.278109,7.5848812 36.2355399,7.50282011 36.2061094,7.46349917 C34.5601053,5.1489062 30.8326311,8.70916092 28.0263307,12.8378597 C26.9459171,14.4254426 25.5703579,16.2129427 24.1440312,17.503161 C24.1440312,17.503161 22.0309234,19.4721999 21.1281438,18.0575008 C20.7981021,17.4630921 20.8996372,16.594078 21.0857849,16.0233901 C22.1369782,12.9813597 23.9483186,10.2206664 26.0096077,8.55497581 C26.591385,8.09391642 27.2239299,7.96056714 27.5376798,8.15610334 C27.8368195,8.33625308 27.8850644,8.78160547 27.6958685,9.08666331 C27.2158365,9.07106316 26.8311382,9.21937149 26.5185446,9.54782956 C25.9026069,10.2047457 25.6886054,10.8382616 25.8844231,11.4326703 C26.835763,12.8089032 28.7330824,10.0875308 28.6413224,8.42974717 C28.6085284,7.83533849 28.2966706,7.27245068 27.8310385,6.9984863 C27.1372151,6.5764273 26.0787693,6.68573524 25.3937751,7.02220709 C24.4767006,7.37395855 23.0252529,8.60156258 22.1779707,9.55573649 C21.1113264,10.7523539 19.2819073,12.0815727 18.7099051,11.9327301 C18.8968937,11.424336 20.4420985,8.21049018 18.8165906,7.00639323 Z M31.6252567,11.7608078 C32.1420768,11.033691 33.6462892,9.08644961 34.0130139,8.75809839 C35.2463608,7.6550819 35.7393212,8.14039633 35.7819953,8.48424086 C34.6309486,10.5798974 33.2724171,12.9807186 31.9951347,15.1390963 C31.9977624,15.1314031 31.5954058,15.7567984 31.5954058,15.7567984 C31.0312868,16.6323304 30.4632787,17.3831681 29.5367444,17.9069486 C29.4046227,17.9463764 29.1868372,17.9620834 29.0418921,17.8521344 C28.8674115,17.7348127 28.7985652,17.5392765 28.8182205,17.3359402 C28.8738231,16.6636376 29.5471502,14.6074088 31.6252567,11.7608078 Z M17.1722681,13.019719 C17.1722681,13.019719 17.1490391,13.0903471 17.1376873,13.1134268 C17.1347443,13.1134268 15.979283,15.0290404 15.979283,15.0290404 C15.2819911,15.9754143 14.4113747,17.1643385 13.323078,17.7349195 C13.000499,17.8443343 12.5545222,17.9149624 12.327277,17.6258253 C11.8455632,17.0392167 12.0938303,16.2258716 12.2955341,15.5691691 L12.3670081,15.3345257 C12.9453168,13.7394632 13.8628118,12.3316026 14.7560265,11.0256772 C14.7671681,11.017984 14.792184,11.0101839 14.8012233,11.0101839 C14.8034306,11.017984 14.8070043,11.017984 14.8084758,11.033691 C15.3689161,12.1282663 16.4197941,12.6363398 17.2056927,12.8713038 C17.2104226,12.8713038 17.215573,12.8791039 17.215573,12.8948109 C17.2156781,12.9181043 17.2028548,12.9496252 17.1722681,13.019719 Z M18.2668714,10.7600471 C18.2617211,10.7756473 17.7522586,11.9642509 17.7522586,11.9642509 C17.6785773,12.0267584 17.5621168,11.9955581 17.4286286,11.9642509 L17.1999118,11.92493 C16.4817032,11.6983003 15.9399723,11.2134133 15.7729544,10.6348185 C15.542661,9.50872232 16.4889557,8.62506967 16.9058173,8.30462537 C17.3058614,8.02286091 17.9277903,7.87433888 18.2889443,8.16379657 C18.5116699,8.42974717 18.5960722,8.77369855 18.5960722,9.14927764 C18.5961774,9.6573512 18.4418776,10.2281459 18.2668714,10.7600471 Z M51.8533445,14.3881519 C51.5970892,13.825264 50.9890346,13.4654988 50.3409336,13.5044992 C48.2363397,13.7001422 46.1777834,15.4595406 45.0968443,17.9851631 C44.5296771,19.2833952 44.2201316,20.3545703 44.0171665,22.0592613 C44.6716791,21.2931441 46.0065611,20.0342329 47.5213895,19.3460096 C47.5213895,19.3460096 47.7275079,17.711733 48.7785961,16.2571787 C49.1763279,15.6548631 49.9722119,14.6853028 50.8659522,14.9432396 C51.6469108,15.2091902 51.3723665,17.4066751 50.334522,19.5332114 C49.5665969,21.0973942 48.3914803,22.6617906 47.2024893,23.7406589 C46.151296,24.6477118 44.5960007,25.7425008 43.2352619,24.8980623 C42.3782046,24.3821886 41.941057,23.3026792 42.0333425,21.9108461 C42.4428465,17.9619766 44.2111973,14.5993951 46.7416922,10.7677404 C49.3509136,7.20972951 52.2271115,3.55790401 56.101738,1.61044895 C56.8920512,1.20388325 57.6239239,1.11006862 58.2565739,1.36031221 C58.2565739,1.36031221 54.6193882,3.39346127 52.8856182,7.15491526 C52.4445816,8.10908917 51.8311665,9.39898698 52.4488911,10.5407902 C52.7716803,11.1349851 53.3447336,11.1819993 53.8062664,11.1506921 C55.9314617,10.6500981 57.3044982,8.63265604 58.4263247,6.78734995 C59.0767381,5.38760995 59.6548366,3.99567003 59.6548366,2.44730114 C59.6548366,2.25967187 59.6452717,2.00953513 59.6297156,1.82169216 C60.6449617,1.27451135 62.7270624,2.24396487 62.7270624,2.24396487 C64.3540418,2.79157307 67.8183235,5.48954521 68.9869234,6.00541886 C69.5569285,5.3330094 70.4936583,4.31654172 71.0211995,3.80814761 L70.2575839,3.33106065 C69.0351683,2.57252979 67.7430656,1.85299932 66.4713539,1.14148263 C63.5830686,-0.461379948 61.2319945,0.101507863 60.0355407,0.539487577 C59.5652839,0.711409842 59.135599,0.860038723 59.135599,0.860038723 C58.2476397,-0.125228647 56.7912518,-0.031627713 55.7181959,0.234429738 C51.8592306,1.36041906 48.2763861,4.10508482 44.4351842,8.86751318 C41.6111204,12.59766 39.8593768,15.8195196 38.9256951,19.0020582 C38.206015,21.144622 37.9872835,24.2959604 39.7438622,26.1649872 C41.2373534,27.752036 43.2177088,27.4081914 44.6160765,26.8376104 C47.6460485,25.3205487 50.369313,22.0516749 51.7262679,18.2902209 C52.053787,17.1721386 52.4171482,15.5925694 51.8533445,14.3881519 Z M58.820693,2.60383695 C58.4195977,7.28014391 54.8439007,10.0251302 53.9590946,10.2437461 C53.4229345,10.353054 52.5080673,10.1108242 53.324868,8.14830326 C54.5275231,5.50493167 56.5810342,3.26085995 58.7841151,2.11125669 C58.8378257,2.30679289 58.8363542,2.43159414 58.820693,2.60383695 Z M80.0314431,3.19792508 C78.1080568,4.30852794 76.1141424,5.02773786 73.7006336,4.77760112 C73.0318262,5.54414576 72.3804668,6.33387693 71.7801903,7.14700833 C75.1677426,8.02286091 78.7589957,6.07572641 80.7619494,4.22262024 C82.8808382,2.35359336 83.9672429,0 83.9672429,0 C83.9672429,0 82.3790486,1.84530609 80.0314431,3.19792508 Z M43.6820795,7.09208724 L41.1590474,7.09208724 L39.7358739,9.44279564 L42.2583805,9.44279564 L43.6820795,7.09208724 Z" id="Shape"></path>
                        <path d="M73.88511,24.6230766 C73.613974,24.8103621 73.23306,24.6663784 73.3754038,24.2372002 C73.7302652,23.1444169 75.1406764,20.9174682 75.1406764,20.9174682 L79.0691538,13.8434934 L76.3782791,13.8434934 C76.2503273,14.0568026 75.9768803,14.5465607 75.9768803,14.5465607 C75.8523951,14.3360244 75.4800953,13.8679173 75.3268263,13.766702 C74.6694188,13.344883 73.704948,13.5443271 73.0395566,13.926684 C70.1465643,15.6441435 68.0357798,19.0373604 66.3710408,21.6835684 C66.3710408,21.6835684 64.6186894,24.6251031 63.6460247,24.8438517 C62.8866129,24.9063513 62.9649807,23.8677485 62.9978616,23.6257492 C63.2914784,21.8770399 63.9733628,20.2146142 64.6602895,18.7081176 C66.0576744,17.7246553 67.6522396,16.4368007 69.1014145,15.0240534 C72.2464235,11.9718113 74.8977991,8.51396162 75.2853313,7.74124884 C75.2853313,7.74124884 74.8658637,7.82721247 74.3705494,7.84267739 C71.9510208,11.2692773 66.9997695,16.2494085 65.4986995,16.9907648 C66.1636706,15.3668414 70.4600357,7.61624961 74.1160115,3.90872144 L74.6913744,3.34654489 C75.5810491,2.46451112 76.5027643,1.55911998 77.2211012,1.41076339 C77.2969478,1.40297761 77.394645,1.41076339 77.4790008,1.5905831 C77.5110412,2.27733225 77.2592346,2.78479497 76.9703451,3.36232978 L76.5654795,4.20543461 C76.5654795,4.20543461 77.1389515,4.09611362 77.5156635,3.97090108 C77.9525695,3.13611531 78.4366433,2.1991544 78.2581621,1.08322703 C78.1987034,0.7241209 77.9425897,0.450978398 77.6080031,0.388478786 C76.5173663,0.177729241 75.3288223,0.997050093 74.3723353,1.66076184 L74.3337817,1.68401255 C69.417197,5.59461114 65.2656969,11.2302417 61.6359838,18.9265463 C61.3729368,19.1291901 60.3565709,19.3714027 60.1838675,19.2541893 C60.5423006,18.5050472 60.9935986,17.4979075 61.2193526,16.4051242 C61.2584315,16.0927328 61.294779,15.7729822 61.294779,15.4608042 C61.294779,14.7889866 61.1359423,14.1569513 60.5432461,13.720094 C59.8482304,13.3687736 58.9892305,13.5328084 58.4099807,13.7979518 C55.8155427,14.8907352 53.8764111,17.591657 52.4770302,19.8159392 C51.7244467,21.229113 50.9740693,22.7426489 50.766279,24.4757866 C50.6199433,25.8337133 50.9178672,26.7080679 51.6784345,27.1452453 C52.4604322,27.5508528 53.4447576,27.1292471 53.8314494,26.9264966 C56.4599239,25.5214285 58.2965259,22.7038266 59.7441251,20.127904 C59.8016929,20.1202249 60.5920947,20.0969742 61.1900435,19.9406185 C61.1979223,19.9406185 61.2012839,19.9406185 61.2145203,19.9487242 C61.1802737,20.0654044 60.8713195,21.0023653 60.8713195,21.0023653 C59.9538064,23.7340036 59.5295064,25.5919273 60.396175,26.6923897 C61.6346182,28.2457077 63.6849985,26.6379958 65.352889,24.5145022 C64.9948761,27.0589617 66.2937235,27.4573167 67.2839317,27.262352 C68.421316,26.9502806 69.6887532,25.7167132 70.2769323,25.0846778 C70.0880511,25.8260342 70.1393158,27.1532444 71.1740656,27.2857094 C71.8831581,27.4188144 72.4139794,27.0271786 73.028001,26.6914298 C75.2308099,25.4736473 77.8676885,21.4157586 78.5523041,20.2425577 L77.6546456,20.2425577 C76.6813505,21.7360425 75.4429074,23.6937948 73.88511,24.6230766 Z M54.1126702,24.3513206 C53.9729527,24.1404644 53.9266253,23.9100904 53.9220031,23.6609452 C53.8952152,22.1303447 55.5171986,19.389534 56.6619365,17.8963692 L56.6643526,17.8963692 C57.1440143,18.9629155 58.230449,19.6484915 58.8862808,19.9374188 C58.0718224,21.7796642 55.2782081,25.7250322 54.1126702,24.3513206 Z M59.3460879,19.1138318 C59.2685604,19.1688656 57.8985937,18.7002252 57.6337608,17.4123705 C57.4091624,16.303589 58.1612206,15.4372335 58.888802,15.0005894 C59.2011178,14.750591 59.671535,14.665054 60.0166267,14.7894133 C60.3369264,15.0083752 60.4236983,15.3989445 60.4236983,15.819697 C60.4236983,16.0778012 60.389977,16.3429446 60.3602477,16.5848373 L60.3537345,16.6396578 C60.1242837,17.5050261 59.7855941,18.3366441 59.3460879,19.1138318 Z M70.3340799,23.8596428 C70.3329243,23.8596428 70.0740793,24.0937497 70.0740793,24.0937497 C69.7045108,24.4292852 69.3242271,24.7882846 68.8651554,24.6086782 C68.7383592,24.5619635 68.6491711,24.3903562 68.6277407,24.2572512 C68.6068356,23.2971463 69.0326063,22.40754 69.4456658,21.5411845 L69.5515569,21.3147567 C70.7394707,19.3010107 72.1202576,16.9281585 74.148157,15.2814111 C74.4898871,15.0310927 74.8607162,14.8207697 75.2521352,14.9848045 C75.3421637,15.0705549 75.4470043,15.2189115 75.4470043,15.3670547 C75.4470043,15.4140894 75.4058244,15.5388753 75.382188,15.5778043 C74.8157545,16.5070861 74.276424,17.4825493 73.7519056,18.4191902 C72.7268205,20.2691147 71.6633919,22.1811123 70.3340799,23.8596428 Z" id="Shape"></path>
                    </g>
                </g>
            </g>
        </g>
    </g>
</svg>